<svg xmlns="http://www.w3.org/2000/svg" xmlns:xlink="http://www.w3.org/1999/xlink" width="400" zoomAndPan="magnify" viewBox="0 0 300 299.999988" height="400" preserveAspectRatio="xMidYMid meet" version="1.0"><defs><clipPath id="0f3498c834"><path d="M 6.488281 6.488281 L 293.738281 6.488281 L 293.738281 293.738281 L 6.488281 293.738281 Z M 6.488281 6.488281 " clip-rule="nonzero"/></clipPath></defs><g clip-path="url(#0f3498c834)"><path fill="#00bf63" d="M 59.214844 156.679688 L 13.277344 156.679688 C 9.558594 156.679688 6.554688 153.660156 6.554688 149.957031 C 6.554688 146.234375 9.558594 143.230469 13.277344 143.230469 L 59.214844 143.230469 L 47.453125 133.207031 C 44.636719 130.792969 44.3125 126.5625 46.722656 123.746094 C 49.136719 120.929688 53.367188 120.605469 56.183594 123.019531 L 81.730469 144.792969 C 82.027344 145.035156 82.296875 145.304688 82.554688 145.617188 C 84.964844 148.433594 84.628906 152.664062 81.8125 155.074219 L 56.183594 176.933594 C 53.367188 179.34375 49.136719 179.007812 46.722656 176.203125 C 44.3125 173.386719 44.648438 169.144531 47.453125 166.746094 L 59.214844 156.71875 Z M 156.8125 240.816406 L 156.8125 286.753906 C 156.8125 290.472656 153.796875 293.476562 150.089844 293.476562 C 146.371094 293.476562 143.367188 290.472656 143.367188 286.753906 L 143.367188 240.816406 L 133.339844 252.578125 C 130.929688 255.394531 126.699219 255.71875 123.882812 253.308594 C 121.066406 250.894531 120.742188 246.664062 123.152344 243.847656 L 144.929688 218.300781 C 145.171875 218.003906 145.441406 217.734375 145.738281 217.476562 C 148.554688 215.066406 152.785156 215.402344 155.195312 218.21875 L 177.054688 243.847656 C 179.464844 246.664062 179.128906 250.894531 176.324219 253.308594 C 173.507812 255.71875 169.265625 255.382812 166.867188 252.578125 L 156.839844 240.816406 Z M 240.953125 143.21875 L 286.886719 143.21875 C 290.605469 143.21875 293.609375 146.234375 293.609375 149.941406 C 293.609375 153.660156 290.605469 156.664062 286.886719 156.664062 L 240.953125 156.664062 L 252.714844 166.691406 C 255.53125 169.101562 255.855469 173.335938 253.441406 176.148438 C 251.03125 178.964844 246.800781 179.289062 243.984375 176.878906 L 218.433594 155.101562 C 218.136719 154.859375 217.867188 154.589844 217.613281 154.292969 C 215.199219 151.476562 215.539062 147.246094 218.355469 144.835938 L 243.984375 122.976562 C 246.800781 120.566406 251.03125 120.902344 253.441406 123.707031 C 255.855469 126.523438 255.515625 130.765625 252.714844 133.164062 L 240.953125 143.191406 Z M 143.351562 59.082031 L 143.351562 13.144531 C 143.351562 9.425781 146.371094 6.421875 150.078125 6.421875 C 153.796875 6.421875 156.800781 9.425781 156.800781 13.144531 L 156.800781 59.082031 L 166.824219 47.316406 C 169.238281 44.5 173.46875 44.175781 176.285156 46.589844 C 179.101562 49 179.425781 53.230469 177.011719 56.046875 L 155.238281 81.597656 C 154.996094 81.894531 154.726562 82.164062 154.414062 82.417969 C 151.597656 84.832031 147.367188 84.492188 144.957031 81.679688 L 123.101562 56.046875 C 120.6875 53.230469 121.023438 49 123.828125 46.589844 C 126.644531 44.175781 130.886719 44.515625 133.285156 47.316406 L 143.3125 59.082031 Z M 150.078125 201.160156 C 141.898438 201.160156 133.757812 201.738281 125.984375 202.910156 C 121.914062 203.519531 117.964844 203.195312 114.273438 201.980469 C 110.566406 200.753906 107.1875 198.667969 104.273438 195.757812 C 101.363281 192.847656 99.261719 189.464844 98.050781 185.757812 C 96.835938 182.066406 96.5 178.117188 97.121094 174.046875 C 98.277344 166.273438 98.871094 158.132812 98.871094 149.957031 C 98.871094 141.777344 98.292969 133.636719 97.121094 125.863281 C 96.511719 121.792969 96.835938 117.84375 98.050781 114.152344 C 99.277344 110.445312 101.363281 107.066406 104.273438 104.152344 C 107.1875 101.242188 110.566406 99.140625 114.273438 97.929688 C 117.964844 96.714844 121.914062 96.378906 125.984375 97 C 133.757812 98.15625 141.898438 98.75 150.078125 98.75 C 158.253906 98.75 166.394531 98.171875 174.167969 97 C 178.238281 96.390625 182.1875 96.714844 185.878906 97.929688 C 189.585938 99.15625 192.96875 101.242188 195.878906 104.152344 C 198.789062 107.066406 200.890625 110.445312 202.101562 114.152344 C 203.316406 117.84375 203.652344 121.792969 203.03125 125.863281 C 201.875 133.636719 201.28125 141.777344 201.28125 149.957031 C 201.28125 158.132812 201.859375 166.273438 203.03125 174.046875 C 203.640625 178.117188 203.316406 182.066406 202.101562 185.757812 C 200.875 189.464844 198.789062 192.847656 195.878906 195.757812 C 192.96875 198.667969 189.585938 200.769531 185.878906 201.980469 C 182.1875 203.195312 178.238281 203.53125 174.167969 202.910156 C 166.394531 201.753906 158.253906 201.160156 150.078125 201.160156 Z M 150.078125 201.160156 " fill-opacity="1" fill-rule="evenodd"/></g></svg>