<svg xmlns="http://www.w3.org/2000/svg" xmlns:xlink="http://www.w3.org/1999/xlink" width="400" zoomAndPan="magnify" viewBox="0 0 300 299.999988" height="400" preserveAspectRatio="xMidYMid meet" version="1.0"><defs><clipPath id="bbe222d20f"><path d="M 50 7 L 271 7 L 271 293.355469 L 50 293.355469 Z M 50 7 " clip-rule="nonzero"/></clipPath></defs><g clip-path="url(#bbe222d20f)"><path fill="#e8e3e3" d="M 266.367188 293.355469 L 53.964844 293.355469 C 51.953125 293.355469 50.273438 291.679688 50.273438 289.667969 L 50.273438 133.929688 C 50.273438 131.917969 51.953125 130.242188 53.964844 130.242188 L 174.164062 130.242188 L 174.164062 89 L 53.964844 89 C 51.953125 89 50.273438 87.492188 50.273438 85.480469 L 50.273438 10.710938 C 50.273438 8.867188 51.953125 7.191406 53.964844 7.191406 L 214.5625 7.191406 C 215.570312 7.191406 216.410156 7.527344 217.078125 8.195312 L 268.878906 60 C 269.550781 60.667969 270.054688 61.507812 270.054688 62.511719 L 270.054688 289.667969 C 270.054688 291.679688 268.378906 293.355469 266.367188 293.355469 Z M 266.367188 293.355469 " fill-opacity="1" fill-rule="evenodd"/></g><path fill="#9c9d9e" d="M 266.367188 137.449219 L 214.5625 137.449219 C 212.550781 137.449219 210.875 135.941406 210.875 133.929688 L 210.875 85.480469 C 210.875 83.46875 212.550781 81.960938 214.5625 81.960938 L 266.367188 81.960938 C 268.378906 81.960938 270.054688 83.46875 270.054688 85.480469 L 270.054688 133.929688 C 270.054688 135.941406 268.378906 137.449219 266.367188 137.449219 Z M 266.367188 137.449219 " fill-opacity="1" fill-rule="evenodd"/><path fill="#9c9d9e" d="M 266.367188 66.035156 L 214.5625 66.035156 C 212.550781 66.035156 210.875 64.523438 210.875 62.511719 L 210.875 10.710938 C 210.875 9.371094 211.882812 8.03125 213.222656 7.527344 C 214.5625 6.855469 216.074219 7.191406 217.078125 8.195312 L 268.542969 59.664062 C 269.550781 60.332031 270.054688 61.339844 270.054688 62.511719 C 270.054688 64.523438 268.378906 66.035156 266.367188 66.035156 Z M 266.367188 66.035156 " fill-opacity="1" fill-rule="evenodd"/><path fill="#717273" d="M 182.710938 36.527344 L 85.816406 36.527344 C 83.804688 36.527344 82.128906 34.851562 82.128906 32.839844 C 82.128906 30.828125 83.804688 29.320312 85.816406 29.320312 L 182.710938 29.320312 C 184.554688 29.320312 186.234375 30.828125 186.234375 32.839844 C 186.234375 34.851562 184.554688 36.527344 182.710938 36.527344 Z M 182.710938 36.527344 " fill-opacity="1" fill-rule="evenodd"/><path fill="#717273" d="M 182.710938 51.785156 L 85.816406 51.785156 C 83.804688 51.785156 82.128906 50.109375 82.128906 48.097656 C 82.128906 46.085938 83.804688 44.574219 85.816406 44.574219 L 182.710938 44.574219 C 184.554688 44.574219 186.234375 46.085938 186.234375 48.097656 C 186.234375 50.109375 184.554688 51.785156 182.710938 51.785156 Z M 182.710938 51.785156 " fill-opacity="1" fill-rule="evenodd"/><path fill="#717273" d="M 182.710938 67.039062 L 85.816406 67.039062 C 83.804688 67.039062 82.128906 65.363281 82.128906 63.351562 C 82.128906 61.339844 83.804688 59.832031 85.816406 59.832031 L 182.710938 59.832031 C 184.554688 59.832031 186.234375 61.339844 186.234375 63.351562 C 186.234375 65.363281 184.554688 67.039062 182.710938 67.039062 Z M 182.710938 67.039062 " fill-opacity="1" fill-rule="evenodd"/><path fill="#717273" d="M 255.46875 100.066406 L 225.460938 100.066406 C 223.449219 100.066406 221.773438 98.386719 221.773438 96.375 C 221.773438 94.363281 223.449219 92.855469 225.460938 92.855469 L 255.46875 92.855469 C 257.480469 92.855469 259.15625 94.363281 259.15625 96.375 C 259.15625 98.386719 257.480469 100.066406 255.46875 100.066406 Z M 255.46875 100.066406 " fill-opacity="1" fill-rule="evenodd"/><path fill="#717273" d="M 255.46875 113.308594 L 225.460938 113.308594 C 223.449219 113.308594 221.773438 111.632812 221.773438 109.621094 C 221.773438 107.777344 223.449219 106.101562 225.460938 106.101562 L 255.46875 106.101562 C 257.480469 106.101562 259.15625 107.777344 259.15625 109.621094 C 259.15625 111.632812 257.480469 113.308594 255.46875 113.308594 Z M 255.46875 113.308594 " fill-opacity="1" fill-rule="evenodd"/><path fill="#717273" d="M 255.46875 126.550781 L 225.460938 126.550781 C 223.449219 126.550781 221.773438 124.875 221.773438 122.863281 C 221.773438 121.019531 223.449219 119.34375 225.460938 119.34375 L 255.46875 119.34375 C 257.480469 119.34375 259.15625 121.019531 259.15625 122.863281 C 259.15625 124.875 257.480469 126.550781 255.46875 126.550781 Z M 255.46875 126.550781 " fill-opacity="1" fill-rule="evenodd"/><path fill="#1aa1ff" d="M 177.851562 137.449219 L 33.679688 137.449219 C 31.667969 137.449219 30.15625 135.773438 30.15625 133.929688 L 30.15625 85.480469 C 30.15625 83.46875 31.667969 81.792969 33.679688 81.792969 L 177.851562 81.792969 C 179.863281 81.792969 181.371094 83.46875 181.371094 85.480469 L 181.371094 133.929688 C 181.371094 135.773438 179.863281 137.449219 177.851562 137.449219 Z M 177.851562 137.449219 " fill-opacity="1" fill-rule="evenodd"/><path fill="#ffffff" d="M 123.199219 126.550781 C 121.019531 126.550781 119.34375 124.875 119.34375 122.695312 L 119.34375 96.375 C 119.34375 94.195312 121.019531 92.519531 123.199219 92.519531 C 125.378906 92.519531 127.054688 94.195312 127.054688 96.375 L 127.054688 122.695312 C 127.054688 124.875 125.378906 126.550781 123.199219 126.550781 Z M 123.199219 126.550781 " fill-opacity="1" fill-rule="evenodd"/><path fill="#ffffff" d="M 131.917969 113.308594 L 123.703125 113.308594 C 121.355469 113.308594 119.34375 111.296875 119.34375 108.78125 L 119.34375 96.375 C 119.34375 94.03125 121.355469 92.019531 123.703125 92.019531 L 131.917969 92.019531 C 136.945312 92.019531 140.96875 96.375 140.96875 101.742188 L 140.96875 103.417969 C 140.96875 108.78125 136.945312 113.308594 131.917969 113.308594 Z M 127.054688 105.429688 L 131.917969 105.429688 C 132.417969 105.429688 133.257812 104.757812 133.257812 103.417969 L 133.257812 101.742188 C 133.257812 100.566406 132.417969 99.730469 131.917969 99.730469 L 127.054688 99.730469 Z M 127.054688 105.429688 " fill-opacity="1" fill-rule="evenodd"/><path fill="#ffffff" d="M 133.089844 127.390625 L 124.039062 127.390625 C 121.355469 127.390625 119.34375 125.210938 119.34375 122.527344 L 119.34375 110.289062 C 119.34375 107.609375 121.355469 105.429688 124.039062 105.429688 L 133.089844 105.429688 C 137.785156 105.429688 141.472656 109.621094 141.472656 114.480469 L 141.472656 118.335938 C 141.472656 123.367188 137.785156 127.390625 133.089844 127.390625 Z M 127.054688 119.679688 L 133.089844 119.679688 C 133.257812 119.679688 133.761719 119.175781 133.761719 118.335938 L 133.761719 114.480469 C 133.761719 113.644531 133.257812 113.308594 133.089844 113.308594 L 127.054688 113.308594 Z M 127.054688 119.679688 " fill-opacity="1" fill-rule="evenodd"/><path fill="#ffffff" d="M 75.589844 127.390625 C 73.914062 127.390625 72.402344 126.21875 71.902344 124.707031 L 66.535156 108.277344 L 61.003906 124.707031 C 60.5 126.21875 58.992188 127.390625 57.316406 127.390625 C 55.640625 127.390625 54.128906 126.21875 53.628906 124.707031 L 44.574219 97.046875 C 43.90625 95.035156 45.078125 92.855469 47.089844 92.183594 C 49.101562 91.515625 51.28125 92.519531 51.953125 94.53125 L 57.316406 111.128906 L 62.847656 94.53125 C 63.351562 93.023438 64.859375 92.019531 66.535156 92.019531 C 68.210938 92.019531 69.554688 93.023438 70.222656 94.53125 L 75.589844 111.128906 L 80.953125 94.53125 C 81.625 92.519531 83.804688 91.515625 85.816406 92.183594 C 87.828125 92.855469 89 95.035156 88.328125 97.046875 L 79.277344 124.707031 C 78.773438 126.21875 77.265625 127.390625 75.589844 127.390625 Z M 75.589844 127.390625 " fill-opacity="1" fill-rule="evenodd"/><path fill="#ffffff" d="M 111.128906 127.390625 L 103.921875 127.390625 C 97.71875 127.390625 92.855469 122.195312 92.855469 115.65625 L 92.855469 103.585938 C 92.855469 97.214844 97.71875 92.019531 103.921875 92.019531 L 111.128906 92.019531 C 113.308594 92.019531 114.984375 93.695312 114.984375 95.875 C 114.984375 97.886719 113.308594 99.730469 111.128906 99.730469 L 103.921875 99.730469 C 102.078125 99.730469 100.566406 101.40625 100.566406 103.585938 L 100.566406 115.65625 C 100.566406 117.835938 102.078125 119.679688 103.921875 119.679688 L 111.128906 119.679688 C 113.308594 119.679688 114.984375 121.355469 114.984375 123.535156 C 114.984375 125.714844 113.308594 127.390625 111.128906 127.390625 Z M 111.128906 127.390625 " fill-opacity="1" fill-rule="evenodd"/><path fill="#ffffff" d="M 111.128906 113.476562 L 96.710938 113.476562 C 94.53125 113.476562 92.855469 111.800781 92.855469 109.621094 C 92.855469 107.441406 94.53125 105.765625 96.710938 105.765625 L 111.128906 105.765625 C 113.308594 105.765625 114.984375 107.441406 114.984375 109.621094 C 114.984375 111.800781 113.308594 113.476562 111.128906 113.476562 Z M 111.128906 113.476562 " fill-opacity="1" fill-rule="evenodd"/><path fill="#ffffff" d="M 157.566406 116.996094 C 151.027344 116.996094 145.832031 111.632812 145.832031 104.925781 L 145.832031 103.921875 C 145.832031 97.382812 151.027344 92.019531 157.566406 92.019531 C 163.9375 92.019531 169.132812 97.382812 169.132812 103.921875 L 169.132812 104.925781 C 169.132812 111.632812 163.9375 116.996094 157.566406 116.996094 Z M 157.566406 99.730469 C 155.386719 99.730469 153.542969 101.574219 153.542969 103.921875 L 153.542969 104.925781 C 153.542969 107.273438 155.386719 109.285156 157.566406 109.285156 C 159.746094 109.285156 161.421875 107.273438 161.421875 104.925781 L 161.421875 103.921875 C 161.421875 101.574219 159.746094 99.730469 157.566406 99.730469 Z M 157.566406 99.730469 " fill-opacity="1" fill-rule="evenodd"/><path fill="#ffffff" d="M 149.6875 127.390625 C 147.507812 127.390625 145.832031 125.714844 145.832031 123.535156 L 145.832031 104.253906 C 145.832031 102.078125 147.507812 100.398438 149.6875 100.398438 C 151.867188 100.398438 153.542969 102.078125 153.542969 104.253906 L 153.542969 123.535156 C 153.542969 125.714844 151.867188 127.390625 149.6875 127.390625 Z M 149.6875 127.390625 " fill-opacity="1" fill-rule="evenodd"/><path fill="#00ccff" d="M 245.074219 273.070312 L 75.253906 273.070312 C 73.410156 273.070312 71.734375 271.394531 71.734375 269.382812 L 71.734375 154.214844 C 71.734375 152.203125 73.410156 150.523438 75.253906 150.523438 L 245.074219 150.523438 C 246.917969 150.523438 248.59375 152.203125 248.59375 154.214844 L 248.59375 269.382812 C 248.59375 271.394531 246.917969 273.070312 245.074219 273.070312 Z M 245.074219 273.070312 " fill-opacity="1" fill-rule="evenodd"/><path fill="#157e5f" d="M 125.546875 273.070312 L 75.253906 273.070312 C 73.410156 273.070312 71.734375 271.394531 71.734375 269.382812 L 71.734375 268.542969 L 113.644531 225.796875 C 114.480469 224.957031 115.488281 224.453125 116.660156 224.453125 C 117.835938 224.621094 118.839844 225.125 119.511719 225.964844 L 140.632812 250.941406 C 141.976562 252.453125 141.976562 254.796875 140.632812 256.140625 Z M 125.546875 273.070312 " fill-opacity="1" fill-rule="evenodd"/><path fill="#11664d" d="M 245.074219 273.070312 L 114.648438 273.070312 L 175.839844 205.175781 C 176.507812 204.339844 177.683594 203.835938 178.6875 203.835938 C 179.695312 203.667969 180.867188 204.171875 181.539062 204.839844 L 248.59375 269.046875 L 248.59375 269.382812 C 248.59375 271.394531 246.917969 273.070312 245.074219 273.070312 Z M 245.074219 273.070312 " fill-opacity="1" fill-rule="evenodd"/><path fill="#ffd55d" d="M 139.460938 211.378906 C 130.40625 211.378906 123.03125 204.171875 123.03125 195.117188 C 123.03125 186.066406 130.40625 178.6875 139.460938 178.6875 C 148.34375 178.6875 155.722656 186.066406 155.722656 195.117188 C 155.722656 204.171875 148.34375 211.378906 139.460938 211.378906 Z M 139.460938 211.378906 " fill-opacity="1" fill-rule="evenodd"/><path fill="#2f4359" d="M 182.042969 180.363281 C 180.53125 180.363281 179.191406 179.359375 178.6875 178.019531 C 178.1875 176.675781 176.339844 173.828125 174.496094 173.660156 C 172.820312 173.492188 170.140625 175.335938 167.457031 178.855469 C 166.285156 180.53125 164.105469 180.699219 162.425781 179.527344 C 160.917969 178.351562 160.582031 176.175781 161.757812 174.496094 C 166.285156 168.628906 170.976562 165.949219 175.503906 166.449219 C 178.351562 166.953125 180.363281 168.460938 182.042969 170.140625 C 183.550781 168.460938 185.730469 166.953125 188.578125 166.449219 C 193.105469 165.949219 197.800781 168.628906 202.160156 174.496094 C 203.5 176.175781 203.164062 178.351562 201.488281 179.527344 C 199.980469 180.699219 197.632812 180.53125 196.457031 178.855469 C 193.777344 175.335938 191.261719 173.492188 189.417969 173.660156 C 187.574219 173.828125 185.898438 176.675781 185.394531 178.019531 C 185.058594 178.855469 184.222656 179.695312 183.382812 180.03125 C 182.878906 180.199219 182.375 180.363281 182.042969 180.363281 Z M 182.042969 180.363281 " fill-opacity="1" fill-rule="evenodd"/><path fill="#2f4359" d="M 205.511719 203.667969 C 204.171875 203.667969 202.996094 202.996094 202.328125 201.824219 C 202.160156 201.65625 201.152344 199.8125 199.644531 199.644531 C 198.304688 199.476562 196.625 200.480469 194.445312 202.660156 C 193.105469 204.003906 190.925781 204.003906 189.417969 202.660156 C 188.078125 201.320312 187.910156 198.972656 189.417969 197.632812 C 193.105469 193.609375 196.960938 191.933594 200.816406 192.433594 C 202.660156 192.769531 204.339844 193.609375 205.511719 194.613281 C 206.683594 193.609375 208.195312 192.769531 210.207031 192.433594 C 213.894531 191.933594 217.75 193.609375 221.605469 197.632812 C 222.945312 198.972656 222.945312 201.320312 221.4375 202.660156 C 220.097656 204.003906 217.75 204.003906 216.410156 202.660156 C 214.398438 200.480469 212.550781 199.476562 211.210938 199.644531 C 209.871094 199.8125 208.695312 201.65625 208.695312 201.824219 C 208.363281 202.328125 207.859375 202.996094 207.019531 203.332031 C 206.515625 203.5 206.015625 203.667969 205.511719 203.667969 Z M 205.511719 203.667969 " fill-opacity="1" fill-rule="evenodd"/></svg>