<svg xmlns="http://www.w3.org/2000/svg" xmlns:xlink="http://www.w3.org/1999/xlink" width="400" zoomAndPan="magnify" viewBox="0 0 300 299.999988" height="400" preserveAspectRatio="xMidYMid meet" version="1.0"><defs><clipPath id="65e8502043"><path d="M 29 8 L 272 8 L 272 295.296875 L 29 295.296875 Z M 29 8 " clip-rule="nonzero"/></clipPath><clipPath id="f07c4dc19d"><path d="M 26 5.796875 L 270 5.796875 L 270 293 L 26 293 Z M 26 5.796875 " clip-rule="nonzero"/></clipPath></defs><g clip-path="url(#65e8502043)"><path fill="#cfcfcf" d="M 48.164062 147.152344 L 39.796875 147.152344 C 33.792969 147.152344 29.054688 142.253906 29.054688 136.253906 L 29.054688 90.292969 C 29.054688 84.292969 33.792969 79.398438 39.796875 79.398438 L 48.164062 79.398438 L 48.164062 19.222656 C 48.164062 13.21875 53.0625 8.324219 59.0625 8.324219 L 211.789062 8.324219 C 213.367188 8.324219 215.105469 8.796875 216.527344 9.589844 C 217.632812 10.0625 218.582031 10.695312 219.371094 11.640625 L 268.171875 60.128906 C 270.542969 62.179688 271.964844 65.183594 271.964844 68.339844 C 271.964844 68.816406 271.964844 69.128906 271.964844 69.445312 L 271.964844 90.136719 C 271.964844 90.136719 271.964844 90.292969 271.964844 90.292969 L 271.964844 136.253906 C 271.964844 136.410156 271.964844 136.410156 271.964844 136.410156 L 271.964844 284.398438 C 271.964844 290.402344 267.066406 295.296875 261.066406 295.296875 L 59.0625 295.296875 C 53.0625 295.296875 48.164062 290.402344 48.164062 284.398438 Z M 48.164062 147.152344 " fill-opacity="1" fill-rule="evenodd"/></g><g clip-path="url(#f07c4dc19d)"><path fill="#e6e6e6" d="M 45.480469 144.46875 L 37.269531 144.46875 C 31.265625 144.46875 26.371094 139.570312 26.371094 133.570312 L 26.371094 87.609375 C 26.371094 81.609375 31.265625 76.710938 37.269531 76.710938 L 45.480469 76.710938 L 45.480469 16.539062 C 45.480469 10.535156 50.378906 5.796875 56.378906 5.796875 L 209.105469 5.796875 C 210.84375 5.796875 212.421875 6.113281 213.84375 6.902344 C 214.949219 7.375 215.894531 8.007812 216.84375 8.957031 L 265.488281 57.601562 C 267.859375 59.65625 269.277344 62.65625 269.277344 65.8125 C 269.277344 66.128906 269.277344 66.445312 269.277344 66.761719 L 269.277344 87.453125 C 269.277344 87.609375 269.277344 87.609375 269.277344 87.609375 L 269.277344 281.714844 C 269.277344 287.714844 264.382812 292.613281 258.382812 292.613281 L 56.378906 292.613281 C 50.378906 292.613281 45.480469 287.714844 45.480469 281.714844 Z M 45.480469 144.46875 " fill-opacity="1" fill-rule="evenodd"/></g><path fill="#dbd7d7" d="M 258.382812 285.191406 L 56.378906 285.191406 C 54.484375 285.191406 52.902344 283.609375 52.902344 281.714844 L 52.902344 133.726562 C 52.902344 131.832031 54.484375 130.253906 56.378906 130.253906 L 170.726562 130.253906 L 170.726562 91.082031 L 56.378906 91.082031 C 54.484375 91.082031 52.902344 89.503906 52.902344 87.609375 L 52.902344 16.539062 C 52.902344 14.640625 54.484375 13.21875 56.378906 13.21875 L 209.105469 13.21875 C 210.050781 13.21875 210.84375 13.535156 211.472656 14.167969 L 260.75 63.285156 C 261.382812 63.917969 261.855469 64.867188 261.855469 65.8125 L 261.855469 281.714844 C 261.855469 283.609375 260.277344 285.191406 258.382812 285.191406 Z M 258.382812 285.191406 " fill-opacity="1" fill-rule="evenodd"/><path fill="#9c9d9e" d="M 258.382812 137.042969 L 209.105469 137.042969 C 207.210938 137.042969 205.628906 135.464844 205.628906 133.726562 L 205.628906 87.609375 C 205.628906 85.714844 207.210938 84.132812 209.105469 84.132812 L 258.382812 84.132812 C 260.277344 84.132812 261.855469 85.714844 261.855469 87.609375 L 261.855469 133.726562 C 261.855469 135.464844 260.277344 137.042969 258.382812 137.042969 Z M 258.382812 137.042969 " fill-opacity="1" fill-rule="evenodd"/><path fill="#9c9d9e" d="M 258.382812 69.128906 L 209.105469 69.128906 C 207.210938 69.128906 205.628906 67.710938 205.628906 65.8125 L 205.628906 16.539062 C 205.628906 15.273438 206.578125 14.011719 207.839844 13.378906 C 209.105469 12.90625 210.527344 13.21875 211.472656 14.167969 L 260.433594 62.972656 C 261.382812 63.601562 261.855469 64.707031 261.855469 65.8125 C 261.855469 67.710938 260.277344 69.128906 258.382812 69.128906 Z M 258.382812 69.128906 " fill-opacity="1" fill-rule="evenodd"/><path fill="#ffad4c" d="M 174.199219 137.042969 L 37.269531 137.042969 C 35.371094 137.042969 33.792969 135.464844 33.792969 133.570312 L 33.792969 87.609375 C 33.792969 85.714844 35.371094 84.132812 37.269531 84.132812 L 174.199219 84.132812 C 176.09375 84.132812 177.675781 85.714844 177.675781 87.609375 L 177.675781 133.570312 C 177.675781 135.464844 176.09375 137.042969 174.199219 137.042969 Z M 174.199219 137.042969 " fill-opacity="1" fill-rule="evenodd"/><path fill="#e8e3e3" d="M 257.433594 283.925781 L 57.167969 283.925781 C 55.273438 283.925781 53.851562 282.503906 53.851562 280.609375 L 53.851562 133.726562 C 53.851562 131.988281 55.273438 130.410156 57.167969 130.410156 L 170.566406 130.410156 L 170.566406 91.558594 L 57.167969 91.558594 C 55.273438 91.558594 53.851562 89.976562 53.851562 88.242188 L 53.851562 17.800781 C 53.851562 15.90625 55.273438 14.484375 57.167969 14.484375 L 208.628906 14.484375 C 209.421875 14.484375 210.367188 14.800781 211 15.433594 L 259.800781 64.078125 C 260.433594 64.707031 260.75 65.65625 260.75 66.605469 L 260.75 280.609375 C 260.75 282.503906 259.328125 283.925781 257.433594 283.925781 Z M 257.433594 283.925781 " fill-opacity="1" fill-rule="evenodd"/><path fill="#9c9d9e" d="M 257.433594 137.203125 L 208.628906 137.203125 C 206.734375 137.203125 205.15625 135.621094 205.15625 133.726562 L 205.15625 88.242188 C 205.15625 86.347656 206.734375 84.765625 208.628906 84.765625 L 257.433594 84.765625 C 259.328125 84.765625 260.75 86.347656 260.75 88.242188 L 260.75 133.726562 C 260.75 135.621094 259.328125 137.203125 257.433594 137.203125 Z M 257.433594 137.203125 " fill-opacity="1" fill-rule="evenodd"/><path fill="#9c9d9e" d="M 257.433594 69.921875 L 208.628906 69.921875 C 206.734375 69.921875 205.15625 68.339844 205.15625 66.605469 L 205.15625 17.800781 C 205.15625 16.378906 205.945312 15.273438 207.210938 14.640625 C 208.472656 14.167969 210.050781 14.484375 211 15.433594 L 259.488281 63.917969 C 260.277344 64.390625 260.90625 65.496094 260.90625 66.605469 C 260.90625 68.339844 259.328125 69.921875 257.433594 69.921875 Z M 257.433594 69.921875 " fill-opacity="1" fill-rule="evenodd"/><path fill="#717273" d="M 178.464844 41.964844 L 87.335938 41.964844 C 85.4375 41.964844 83.859375 40.542969 83.859375 38.648438 C 83.859375 36.753906 85.4375 35.175781 87.335938 35.175781 L 178.464844 35.175781 C 180.359375 35.175781 181.9375 36.753906 181.9375 38.648438 C 181.9375 40.542969 180.359375 41.964844 178.464844 41.964844 Z M 178.464844 41.964844 " fill-opacity="1" fill-rule="evenodd"/><path fill="#717273" d="M 178.464844 56.335938 L 87.335938 56.335938 C 85.4375 56.335938 83.859375 54.917969 83.859375 53.019531 C 83.859375 51.125 85.4375 49.546875 87.335938 49.546875 L 178.464844 49.546875 C 180.359375 49.546875 181.9375 51.125 181.9375 53.019531 C 181.9375 54.917969 180.359375 56.335938 178.464844 56.335938 Z M 178.464844 56.335938 " fill-opacity="1" fill-rule="evenodd"/><path fill="#717273" d="M 178.464844 70.710938 L 87.335938 70.710938 C 85.4375 70.710938 83.859375 69.289062 83.859375 67.394531 C 83.859375 65.496094 85.4375 64.078125 87.335938 64.078125 L 178.464844 64.078125 C 180.359375 64.078125 181.9375 65.496094 181.9375 67.394531 C 181.9375 69.289062 180.359375 70.710938 178.464844 70.710938 Z M 178.464844 70.710938 " fill-opacity="1" fill-rule="evenodd"/><path fill="#717273" d="M 247.167969 101.824219 L 218.898438 101.824219 C 217 101.824219 215.421875 100.402344 215.421875 98.507812 C 215.421875 96.613281 217 95.191406 218.898438 95.191406 L 247.167969 95.191406 C 249.0625 95.191406 250.484375 96.613281 250.484375 98.507812 C 250.484375 100.402344 249.0625 101.824219 247.167969 101.824219 Z M 247.167969 101.824219 " fill-opacity="1" fill-rule="evenodd"/><path fill="#717273" d="M 247.167969 114.457031 L 218.898438 114.457031 C 217 114.457031 215.421875 112.878906 215.421875 110.984375 C 215.421875 109.089844 217 107.667969 218.898438 107.667969 L 247.167969 107.667969 C 249.0625 107.667969 250.484375 109.089844 250.484375 110.984375 C 250.484375 112.878906 249.0625 114.457031 247.167969 114.457031 Z M 247.167969 114.457031 " fill-opacity="1" fill-rule="evenodd"/><path fill="#717273" d="M 247.167969 126.9375 L 218.898438 126.9375 C 217 126.9375 215.421875 125.355469 215.421875 123.460938 C 215.421875 121.566406 217 120.144531 218.898438 120.144531 L 247.167969 120.144531 C 249.0625 120.144531 250.484375 121.566406 250.484375 123.460938 C 250.484375 125.355469 249.0625 126.9375 247.167969 126.9375 Z M 247.167969 126.9375 " fill-opacity="1" fill-rule="evenodd"/><path fill="#00b9da" d="M 174.042969 137.203125 L 38.214844 137.203125 C 36.320312 137.203125 34.742188 135.621094 34.742188 133.726562 L 34.742188 88.082031 C 34.742188 86.347656 36.320312 84.765625 38.214844 84.765625 L 174.042969 84.765625 C 175.78125 84.765625 177.359375 86.347656 177.359375 88.082031 L 177.359375 133.726562 C 177.359375 135.621094 175.78125 137.203125 174.042969 137.203125 Z M 174.042969 137.203125 " fill-opacity="1" fill-rule="evenodd"/><path fill="#ffffff" d="M 68.855469 127.726562 C 63.328125 127.726562 57.800781 124.09375 57.800781 116.828125 C 57.800781 114.773438 59.539062 113.195312 61.433594 113.195312 C 63.484375 113.195312 65.066406 114.773438 65.066406 116.828125 C 65.066406 120.300781 68.222656 120.460938 68.855469 120.460938 C 69.488281 120.460938 72.488281 120.300781 72.488281 116.828125 L 72.488281 98.035156 C 72.488281 95.980469 74.066406 94.402344 76.121094 94.402344 C 78.175781 94.402344 79.753906 95.980469 79.753906 98.035156 L 79.753906 116.828125 C 79.753906 124.09375 74.226562 127.726562 68.855469 127.726562 Z M 68.855469 127.726562 " fill-opacity="1" fill-rule="evenodd"/><path fill="#ffffff" d="M 94.601562 118.089844 C 88.597656 118.089844 83.542969 112.878906 83.542969 106.71875 L 83.542969 105.773438 C 83.542969 99.453125 88.597656 94.402344 94.601562 94.402344 C 100.757812 94.402344 105.65625 99.453125 105.65625 105.773438 L 105.65625 106.71875 C 105.65625 112.878906 100.757812 118.089844 94.601562 118.089844 Z M 94.601562 101.664062 C 92.546875 101.664062 90.96875 103.5625 90.96875 105.773438 L 90.96875 106.71875 C 90.96875 108.929688 92.546875 110.667969 94.601562 110.667969 C 96.652344 110.667969 98.390625 108.929688 98.390625 106.71875 L 98.390625 105.773438 C 98.390625 103.5625 96.652344 101.664062 94.601562 101.664062 Z M 94.601562 101.664062 " fill-opacity="1" fill-rule="evenodd"/><path fill="#ffffff" d="M 87.335938 127.726562 C 85.28125 127.726562 83.703125 126.144531 83.703125 124.09375 L 83.703125 106.089844 C 83.703125 104.035156 85.28125 102.296875 87.335938 102.296875 C 89.230469 102.296875 90.96875 104.035156 90.96875 106.089844 L 90.96875 124.09375 C 90.96875 126.144531 89.230469 127.726562 87.335938 127.726562 Z M 87.335938 127.726562 " fill-opacity="1" fill-rule="evenodd"/><path fill="#ffffff" d="M 126.820312 127.726562 L 120.027344 127.726562 C 114.183594 127.726562 109.445312 122.828125 109.445312 116.828125 L 109.445312 105.457031 C 109.445312 99.296875 114.183594 94.402344 120.027344 94.402344 L 126.820312 94.402344 C 128.871094 94.402344 130.453125 96.136719 130.453125 98.035156 C 130.453125 100.085938 128.871094 101.664062 126.820312 101.664062 L 120.027344 101.664062 C 118.289062 101.664062 116.867188 103.402344 116.867188 105.457031 L 116.867188 116.828125 C 116.867188 118.882812 118.289062 120.460938 120.027344 120.460938 L 126.820312 120.460938 C 128.871094 120.460938 130.453125 122.199219 130.453125 124.09375 C 130.453125 126.144531 128.871094 127.726562 126.820312 127.726562 Z M 126.820312 127.726562 " fill-opacity="1" fill-rule="evenodd"/><path fill="#ffffff" d="M 126.820312 114.773438 L 113.078125 114.773438 C 111.183594 114.773438 109.445312 113.195312 109.445312 111.140625 C 109.445312 109.089844 111.183594 107.507812 113.078125 107.507812 L 126.820312 107.507812 C 128.871094 107.507812 130.453125 109.089844 130.453125 111.140625 C 130.453125 113.195312 128.871094 114.773438 126.820312 114.773438 Z M 126.820312 114.773438 " fill-opacity="1" fill-rule="evenodd"/><path fill="#ffffff" d="M 148.613281 127.566406 L 141.980469 127.566406 C 137.714844 127.566406 134.242188 124.09375 134.242188 119.828125 L 134.242188 101.824219 C 134.242188 97.558594 137.714844 94.085938 141.980469 94.085938 L 148.613281 94.085938 C 152.246094 94.085938 154.933594 96.613281 156.039062 100.875 C 156.667969 102.769531 155.5625 104.824219 153.511719 105.296875 C 151.613281 105.773438 149.5625 104.667969 149.089844 102.769531 C 148.773438 101.824219 148.457031 101.507812 148.457031 101.351562 L 141.980469 101.507812 C 141.824219 101.507812 141.664062 101.664062 141.664062 101.824219 L 141.664062 119.828125 C 141.664062 119.988281 141.824219 120.144531 141.980469 120.144531 L 148.613281 120.144531 C 148.773438 120.144531 148.929688 119.988281 148.929688 119.828125 L 148.929688 118.089844 C 148.296875 118.40625 147.667969 118.722656 146.878906 118.722656 C 144.824219 118.722656 143.246094 117.144531 143.246094 115.089844 L 143.246094 111.457031 C 143.246094 109.40625 144.824219 107.824219 146.878906 107.824219 L 152.5625 107.824219 C 154.617188 107.824219 156.195312 109.40625 156.195312 111.457031 L 156.195312 119.828125 C 156.195312 124.09375 152.878906 127.566406 148.613281 127.566406 Z M 148.613281 127.566406 " fill-opacity="1" fill-rule="evenodd"/></svg>