<svg xmlns="http://www.w3.org/2000/svg" xmlns:xlink="http://www.w3.org/1999/xlink" width="400" zoomAndPan="magnify" viewBox="0 0 300 299.999988" height="400" preserveAspectRatio="xMidYMid meet" version="1.0"><defs><clipPath id="2786d9d455"><path d="M 51 6.304688 L 273 6.304688 L 273 295.804688 L 51 295.804688 Z M 51 6.304688 " clip-rule="nonzero"/></clipPath><clipPath id="3dc3b46ee6"><path d="M 199 6.304688 L 273 6.304688 L 273 80 L 199 80 Z M 199 6.304688 " clip-rule="nonzero"/></clipPath></defs><path fill="#44546c" d="M 54.464844 265.804688 C 52.769531 265.804688 51.414062 264.785156 51.074219 263.089844 L 8.871094 59.1875 C 8.53125 58 9.039062 56.8125 9.886719 56.136719 C 10.734375 55.289062 11.921875 54.949219 13.109375 55.289062 C 31.753906 60.710938 51.582031 37.828125 51.921875 37.492188 C 53.109375 36.136719 55.144531 35.964844 56.667969 37.152344 C 58.023438 38.339844 58.195312 40.542969 57.007812 41.898438 C 56.160156 42.914062 117.515625 81.730469 96.5 79.863281 L 137.6875 278.855469 C 138.195312 280.71875 57.007812 265.464844 55.144531 265.804688 C 54.804688 265.804688 54.632812 265.804688 54.464844 265.804688 Z M 54.464844 265.804688 " fill-opacity="1" fill-rule="evenodd"/><g clip-path="url(#2786d9d455)"><path fill="#d6d6d4" d="M 239.214844 295.804688 L 84.296875 295.804688 C 65.992188 295.804688 51.074219 280.886719 51.074219 262.414062 L 51.074219 39.695312 C 51.074219 21.390625 65.992188 6.472656 84.296875 6.472656 L 202.945312 6.472656 C 204.808594 6.472656 206.332031 8 206.332031 9.863281 L 206.332031 72.578125 L 269.046875 72.578125 C 270.910156 72.578125 272.4375 74.101562 272.4375 75.964844 L 272.4375 195.292969 C 272.4375 197.15625 270.910156 198.683594 269.046875 198.683594 L 111.414062 198.683594 C 103.957031 198.683594 97.515625 204.277344 97.515625 210.886719 L 97.515625 246.988281 C 97.515625 253.597656 103.789062 259.023438 111.414062 259.023438 L 269.214844 259.023438 C 271.082031 259.023438 272.605469 260.546875 272.605469 262.414062 C 272.4375 280.886719 257.519531 295.804688 239.214844 295.804688 Z M 239.214844 295.804688 " fill-opacity="1" fill-rule="evenodd"/></g><g clip-path="url(#3dc3b46ee6)"><path fill="#44546c" d="M 269.046875 79.355469 L 202.945312 79.355469 C 201.078125 79.355469 199.554688 77.832031 199.554688 75.964844 L 199.554688 9.863281 C 199.554688 8.507812 200.402344 7.320312 201.585938 6.8125 C 202.945312 6.304688 204.300781 6.472656 205.316406 7.488281 L 271.421875 73.59375 C 272.4375 74.609375 272.777344 76.136719 272.269531 77.324219 C 271.757812 78.679688 270.574219 79.355469 269.046875 79.355469 Z M 269.046875 79.355469 " fill-opacity="1" fill-rule="evenodd"/></g><path fill="#0096b0" d="M 269.046875 265.804688 L 111.414062 265.804688 C 100.058594 265.804688 90.738281 257.328125 90.738281 246.988281 L 90.738281 210.886719 C 90.738281 200.378906 100.058594 191.902344 111.414062 191.902344 L 269.214844 191.902344 C 280.574219 191.902344 289.894531 200.378906 289.894531 210.886719 L 289.894531 246.988281 C 289.894531 257.328125 280.574219 265.804688 269.046875 265.804688 Z M 269.046875 265.804688 " fill-opacity="1" fill-rule="evenodd"/><path fill="#44546c" d="M 172.09375 71.222656 L 85.3125 71.222656 C 78.195312 71.222656 72.429688 65.964844 72.429688 59.355469 L 72.429688 39.523438 C 72.429688 32.914062 78.195312 27.660156 85.3125 27.660156 L 172.09375 27.660156 C 179.214844 27.660156 184.976562 32.914062 184.976562 39.523438 L 184.976562 59.355469 C 184.976562 65.796875 179.042969 71.222656 172.09375 71.222656 Z M 172.09375 71.222656 " fill-opacity="1" fill-rule="evenodd"/><path fill="#44546c" d="M 246.84375 102.746094 L 76.667969 102.746094 C 74.804688 102.746094 73.277344 101.222656 73.277344 99.355469 C 73.277344 97.492188 74.804688 95.96875 76.667969 95.96875 L 246.84375 95.96875 C 248.707031 95.96875 250.234375 97.492188 250.234375 99.355469 C 250.234375 101.222656 248.707031 102.746094 246.84375 102.746094 Z M 246.84375 102.746094 " fill-opacity="1" fill-rule="evenodd"/><path fill="#44546c" d="M 246.84375 125.796875 L 76.667969 125.796875 C 74.804688 125.796875 73.277344 124.273438 73.277344 122.410156 C 73.277344 120.542969 74.804688 119.019531 76.667969 119.019531 L 246.84375 119.019531 C 248.707031 119.019531 250.234375 120.542969 250.234375 122.410156 C 250.234375 124.273438 248.707031 125.796875 246.84375 125.796875 Z M 246.84375 125.796875 " fill-opacity="1" fill-rule="evenodd"/><path fill="#44546c" d="M 246.84375 149.019531 L 76.667969 149.019531 C 74.804688 149.019531 73.277344 147.496094 73.277344 145.628906 C 73.277344 143.765625 74.804688 142.238281 76.667969 142.238281 L 246.84375 142.238281 C 248.707031 142.238281 250.234375 143.765625 250.234375 145.628906 C 250.234375 147.496094 248.707031 149.019531 246.84375 149.019531 Z M 246.84375 149.019531 " fill-opacity="1" fill-rule="evenodd"/><path fill="#44546c" d="M 246.84375 172.070312 L 76.667969 172.070312 C 74.804688 172.070312 73.277344 170.546875 73.277344 168.679688 C 73.277344 166.816406 74.804688 165.292969 76.667969 165.292969 L 246.84375 165.292969 C 248.707031 165.292969 250.234375 166.816406 250.234375 168.679688 C 250.234375 170.546875 248.707031 172.070312 246.84375 172.070312 Z M 246.84375 172.070312 " fill-opacity="1" fill-rule="evenodd"/><path fill="#f2f2f2" d="M 115.824219 255.292969 L 115.824219 202.75 C 121.585938 202.75 138.875 202.410156 143.621094 203.257812 C 158.027344 205.632812 158.535156 221.734375 151.753906 229.191406 C 146.164062 235.125 132.433594 233.9375 122.773438 233.9375 L 122.773438 255.292969 Z M 122.773438 227.667969 C 129.550781 227.667969 141.925781 228.683594 145.992188 225.125 C 150.570312 221.054688 149.722656 211.226562 142.773438 209.359375 C 140.058594 208.683594 126.5 208.851562 122.773438 208.851562 Z M 164.808594 255.292969 L 164.808594 202.75 L 171.925781 202.75 L 199.382812 243.9375 L 199.382812 202.75 L 206.164062 202.75 L 206.164062 255.292969 L 199.046875 255.292969 L 171.417969 213.9375 L 171.417969 255.292969 Z M 242.4375 234.617188 L 242.4375 228.511719 L 264.640625 228.34375 L 264.640625 247.835938 C 244.640625 263.9375 215.996094 255.972656 215.996094 229.191406 C 215.996094 197.835938 250.402344 196.816406 259.894531 208.851562 C 261.589844 211.054688 262.945312 213.9375 263.960938 217.328125 L 257.691406 219.191406 C 255.316406 211.5625 250.910156 207.835938 242.4375 207.835938 C 221.589844 207.835938 220.742188 230.886719 225.65625 240.546875 C 231.925781 252.75 249.722656 251.734375 257.859375 244.445312 L 257.859375 234.617188 Z M 242.4375 234.617188 " fill-opacity="1" fill-rule="evenodd"/></svg>