<svg xmlns="http://www.w3.org/2000/svg" xmlns:xlink="http://www.w3.org/1999/xlink" width="400" zoomAndPan="magnify" viewBox="0 0 300 299.999988" height="400" preserveAspectRatio="xMidYMid meet" version="1.0"><defs><clipPath id="56958128ec"><path d="M 49 6.882812 L 271.742188 6.882812 L 271.742188 272 L 49 272 Z M 49 6.882812 " clip-rule="nonzero"/></clipPath><clipPath id="958e1eca99"><path d="M 28 92 L 250 92 L 250 293.382812 L 28 293.382812 Z M 28 92 " clip-rule="nonzero"/></clipPath></defs><path fill="#76c2f2" d="M 267.015625 85.054688 L 206.007812 13.777344 L 206.007812 67.203125 L 206.945312 72.921875 L 207.246094 73.742188 L 207.410156 74.144531 L 207.585938 74.542969 L 207.769531 74.933594 L 208.160156 75.703125 L 208.371094 76.078125 L 208.820312 76.816406 L 209.054688 77.175781 L 209.300781 77.527344 L 209.554688 77.875 L 209.8125 78.214844 L 210.082031 78.550781 C 210.355469 78.878906 210.640625 79.203125 210.9375 79.511719 L 211.234375 79.820312 C 211.433594 80.019531 211.644531 80.21875 211.851562 80.410156 C 215.148438 83.425781 219.355469 85.027344 223.824219 85.054688 Z M 267.015625 85.054688 " fill-opacity="1" fill-rule="evenodd"/><path fill="#76c2f2" d="M 167.289062 83.167969 L 167.289062 28.113281 C 167.289062 27.078125 166.410156 26.230469 165.40625 26.230469 L 29.882812 26.230469 C 28.863281 26.230469 28 27.089844 28 28.113281 L 28 83.167969 C 28 84.1875 28.859375 85.054688 29.882812 85.054688 L 165.40625 85.054688 C 166.414062 85.054688 167.289062 84.203125 167.289062 83.167969 Z M 140.472656 71.308594 C 140.472656 73.535156 138.671875 75.339844 136.457031 75.339844 C 134.238281 75.339844 132.441406 73.535156 132.441406 71.3125 L 132.441406 48.773438 C 132.441406 41.703125 138.179688 35.945312 145.238281 35.945312 L 154.023438 35.945312 C 159.3125 35.945312 159.3125 44 154.023438 44 L 145.238281 44 C 142.613281 44 140.472656 46.140625 140.472656 48.773438 L 140.472656 51.644531 L 154.058594 51.644531 C 159.347656 51.644531 159.347656 59.695312 154.058594 59.695312 L 140.472656 59.695312 Z M 122.410156 67.285156 C 127.703125 67.285156 127.699219 75.335938 122.410156 75.335938 L 110.753906 75.335938 C 105.464844 75.335938 105.460938 67.285156 110.753906 67.285156 L 112.5625 67.285156 L 112.5625 44 L 110.753906 44 C 105.464844 44 105.464844 35.949219 110.753906 35.949219 L 122.410156 35.949219 C 127.699219 35.949219 127.699219 44 122.410156 44 L 120.597656 44 L 120.597656 67.285156 Z M 87.894531 72.808594 C 87.289062 74.332031 85.8125 75.335938 84.167969 75.335938 C 82.527344 75.335938 81.050781 74.332031 80.4375 72.808594 L 67.902344 41.46875 C 65.933594 36.554688 73.390625 33.550781 75.359375 38.472656 L 84.164062 60.492188 L 92.976562 38.472656 C 94.945312 33.550781 102.402344 36.554688 100.433594 41.46875 Z M 61.609375 71.3125 C 61.605469 73.535156 59.808594 75.335938 57.589844 75.335938 C 55.371094 75.335938 53.570312 73.53125 53.570312 71.308594 L 53.570312 58.484375 L 45.246094 58.484375 L 45.246094 71.308594 C 45.246094 76.609375 37.210938 76.609375 37.210938 71.308594 L 37.210938 46.867188 C 37.210938 40.847656 42.105469 35.945312 48.121094 35.945312 L 50.695312 35.945312 C 56.710938 35.945312 61.609375 40.847656 61.609375 46.871094 Z M 61.609375 71.3125 " fill-opacity="1" fill-rule="evenodd"/><path fill="#76c2f2" d="M 45.246094 50.4375 Z M 53.570312 50.4375 C 53.570312 48.019531 54.191406 44 50.691406 44 C 48.832031 44 45.242188 43.550781 45.242188 46.871094 L 45.246094 50.433594 L 53.570312 50.433594 Z M 53.570312 50.4375 " fill-opacity="1" fill-rule="evenodd"/><path fill="#4b708a" d="M 114.59375 154.582031 C 111.984375 154.339844 110.285156 151.679688 111.179688 149.207031 C 112.054688 146.78125 110.265625 144.097656 107.585938 144.097656 C 104.914062 144.097656 103.117188 146.769531 103.992188 149.210938 C 104.875 151.683594 103.1875 154.34375 100.574219 154.582031 C 95.832031 155.011719 96.109375 162.210938 100.933594 162.210938 C 104.542969 162.210938 103.859375 158.515625 107.585938 158.515625 C 111.320312 158.515625 110.621094 162.210938 114.238281 162.210938 C 119.035156 162.210938 119.375 155.027344 114.59375 154.582031 Z M 114.59375 154.582031 " fill-opacity="1" fill-rule="evenodd"/><path fill="#4b708a" d="M 164.792969 158.792969 C 164.792969 154.074219 160.957031 150.230469 156.246094 150.230469 C 151.535156 150.230469 147.703125 154.070312 147.703125 158.792969 C 147.703125 163.511719 151.535156 167.351562 156.246094 167.351562 C 160.960938 167.351562 164.792969 163.507812 164.792969 158.792969 Z M 164.792969 158.792969 " fill-opacity="1" fill-rule="evenodd"/><path fill="#4b708a" d="M 159.839844 221.964844 L 188.976562 162.335938 C 190.335938 159.550781 194.199219 159.296875 195.917969 161.851562 L 238.835938 225.742188 L 238.835938 129.632812 L 82.75 129.632812 L 82.75 234.910156 L 90.195312 234.910156 L 125.582031 177.390625 C 127.148438 174.84375 130.855469 174.84375 132.421875 177.390625 Z M 172.828125 158.789062 C 172.828125 167.953125 165.394531 175.402344 156.246094 175.402344 C 147.105469 175.402344 139.667969 167.949219 139.667969 158.789062 C 139.667969 149.628906 147.105469 142.175781 156.246094 142.175781 C 165.390625 142.175781 172.828125 149.628906 172.828125 158.789062 Z M 202.925781 160.769531 C 207.433594 153.269531 214.164062 153.984375 219.046875 158.253906 C 223.929688 153.980469 230.664062 153.269531 235.171875 160.769531 C 237.898438 165.3125 231.015625 169.464844 228.285156 164.921875 C 227.542969 163.683594 226.867188 163.125 226.523438 163.113281 C 225.464844 163.128906 223.304688 165.148438 222.382812 166.519531 C 221.636719 167.632812 220.386719 168.296875 219.050781 168.296875 C 217.710938 168.296875 216.460938 167.632812 215.710938 166.519531 C 214.644531 164.945312 212.59375 163.097656 211.570312 163.113281 C 211.226562 163.125 210.554688 163.6875 209.8125 164.921875 C 207.085938 169.46875 200.199219 165.308594 202.925781 160.769531 Z M 197.074219 149.289062 C 195.734375 149.289062 194.488281 148.621094 193.738281 147.507812 C 192.652344 145.917969 190.605469 144.082031 189.59375 144.101562 C 189.253906 144.113281 188.578125 144.675781 187.835938 145.910156 C 185.109375 150.449219 178.222656 146.304688 180.949219 141.761719 C 185.488281 134.203125 192.207031 134.988281 197.074219 139.242188 C 201.988281 134.945312 208.707031 134.292969 213.195312 141.761719 C 215.925781 146.300781 209.039062 150.457031 206.308594 145.914062 L 204.527344 144.105469 C 203.421875 144.105469 201.324219 146.144531 200.40625 147.507812 C 199.660156 148.621094 198.410156 149.289062 197.074219 149.289062 Z M 114.234375 170.265625 C 111.808594 170.265625 109.507812 169.539062 107.582031 168.230469 C 99.832031 173.5 89.078125 167.972656 89.078125 158.394531 C 89.078125 153.695312 91.757812 149.628906 95.730469 147.703125 C 95.847656 141.257812 101.121094 136.050781 107.582031 136.050781 C 114.042969 136.050781 119.3125 141.261719 119.433594 147.703125 C 130.613281 153.117188 126.792969 170.265625 114.234375 170.265625 Z M 114.234375 170.265625 " fill-opacity="1" fill-rule="evenodd"/><path fill="#4b708a" d="M 155.660156 230.507812 L 129 187.171875 L 99.632812 234.910156 L 153.515625 234.910156 Z M 155.660156 230.507812 " fill-opacity="1" fill-rule="evenodd"/><path fill="#4b708a" d="M 235.304688 234.910156 L 193.132812 172.128906 L 162.460938 234.910156 Z M 235.304688 234.910156 " fill-opacity="1" fill-rule="evenodd"/><g clip-path="url(#56958128ec)"><path fill="#4b708a" d="M 223.824219 93.105469 C 209.566406 93.105469 197.972656 81.484375 197.972656 67.199219 L 197.972656 6.929688 L 67.675781 6.929688 C 60.238281 6.929688 53.757812 11.53125 51.113281 18.179688 L 165.40625 18.179688 C 170.875 18.179688 175.324219 22.636719 175.324219 28.113281 L 175.324219 83.167969 C 175.308594 85.125 174.742188 86.96875 173.757812 88.519531 C 173.675781 88.652344 173.585938 88.785156 173.492188 88.917969 C 173.449219 88.984375 173.402344 89.046875 173.351562 89.109375 C 173.261719 89.238281 173.164062 89.367188 173.0625 89.488281 C 171.265625 91.691406 168.542969 93.109375 165.410156 93.109375 L 49.847656 93.109375 L 49.847656 253.574219 C 49.847656 263.097656 57.527344 271.4375 67.679688 271.4375 L 253.90625 271.4375 C 263.628906 271.5 271.738281 263.464844 271.738281 253.574219 L 271.738281 93.105469 Z M 78.730469 121.582031 L 242.851562 121.582031 C 245.070312 121.582031 246.867188 123.386719 246.867188 125.609375 L 246.921875 238.9375 C 246.917969 241.144531 245.199219 242.90625 242.898438 242.964844 L 78.730469 242.964844 C 76.511719 242.964844 74.710938 241.164062 74.710938 238.9375 L 74.710938 125.609375 C 74.710938 123.386719 76.511719 121.582031 78.730469 121.582031 Z M 78.730469 121.582031 " fill-opacity="1" fill-rule="evenodd"/></g><g clip-path="url(#958e1eca99)"><path fill="#76c2f2" d="M 41.8125 253.574219 L 41.8125 93.105469 L 28.867188 93.054688 L 28.230469 92.96875 L 28 92.925781 L 28 275.464844 C 28 285.316406 36 293.332031 45.832031 293.332031 L 232.058594 293.332031 C 240.511719 293.332031 247.605469 287.410156 249.433594 279.492188 L 67.679688 279.488281 C 64.308594 279.488281 64.078125 279.078125 61.847656 278.824219 L 58.796875 277.914062 C 48.898438 274.273438 41.8125 264.734375 41.8125 253.570312 Z M 41.8125 253.574219 " fill-opacity="1" fill-rule="evenodd"/></g></svg>