<svg xmlns="http://www.w3.org/2000/svg" xmlns:xlink="http://www.w3.org/1999/xlink" width="400" zoomAndPan="magnify" viewBox="0 0 300 299.999988" height="400" preserveAspectRatio="xMidYMid meet" version="1.0"><defs><clipPath id="0c6a11785e"><path d="M 12.699219 14.539062 L 285.699219 14.539062 L 285.699219 287.539062 L 12.699219 287.539062 Z M 12.699219 14.539062 " clip-rule="nonzero"/></clipPath></defs><g clip-path="url(#0c6a11785e)"><path fill="#44546c" d="M 242.730469 287.292969 L 55.484375 287.292969 C 31.890625 287.292969 12.699219 268.101562 12.699219 244.507812 L 12.699219 57.261719 C 12.699219 33.730469 31.890625 14.539062 55.484375 14.539062 L 242.667969 14.539062 C 266.261719 14.539062 285.453125 33.730469 285.453125 57.261719 L 285.453125 244.507812 C 285.453125 268.101562 266.261719 287.292969 242.730469 287.292969 Z M 242.730469 287.292969 " fill-opacity="1" fill-rule="evenodd"/><path fill="#5c8ca9" d="M 213.410156 287.292969 L 84.804688 287.292969 L 84.804688 265.710938 C 84.804688 253.882812 94.429688 244.195312 106.324219 244.195312 L 191.828125 244.195312 C 203.722656 244.195312 213.410156 253.882812 213.410156 265.710938 Z M 12.699219 215.1875 L 12.699219 86.582031 L 34.28125 86.582031 C 46.109375 86.582031 55.800781 96.273438 55.800781 108.164062 L 55.800781 193.671875 C 55.800781 205.5625 46.109375 215.1875 34.28125 215.1875 Z M 84.804688 14.539062 L 213.410156 14.539062 L 213.410156 36.121094 C 213.410156 47.949219 203.722656 57.640625 191.828125 57.640625 L 106.324219 57.640625 C 94.429688 57.640625 84.804688 48.011719 84.804688 36.121094 Z M 285.453125 86.582031 L 285.453125 215.1875 L 263.933594 215.1875 C 252.042969 215.1875 242.355469 205.5625 242.355469 193.671875 L 242.355469 108.164062 C 242.355469 96.273438 252.042969 86.582031 263.933594 86.582031 Z M 285.453125 86.582031 " fill-opacity="1" fill-rule="evenodd"/></g><path fill="#2496ca" d="M 149.109375 235.953125 C 102.234375 235.953125 64.105469 197.824219 64.105469 150.886719 C 64.105469 104.011719 102.234375 65.882812 149.109375 65.882812 C 195.984375 65.882812 234.113281 104.011719 234.113281 150.886719 C 234.113281 197.824219 195.984375 235.953125 149.109375 235.953125 Z M 149.109375 235.953125 " fill-opacity="1" fill-rule="evenodd"/><path fill="#76c2f2" d="M 149.042969 196.816406 C 136.839844 196.816406 125.261719 192.035156 116.640625 183.351562 C 107.957031 174.667969 103.175781 163.15625 103.175781 150.886719 C 103.175781 138.679688 107.957031 127.101562 116.640625 118.480469 C 125.324219 109.800781 136.839844 105.015625 149.042969 105.015625 C 161.3125 105.015625 172.890625 109.800781 181.574219 118.480469 C 190.195312 127.101562 194.976562 138.679688 194.976562 150.886719 C 194.976562 163.15625 190.195312 174.667969 181.574219 183.351562 C 172.890625 192.035156 161.3125 196.816406 149.042969 196.816406 Z M 149.042969 196.816406 " fill-opacity="1" fill-rule="evenodd"/><path fill="#5c8ca9" d="M 102.234375 200.96875 C 101.414062 200.96875 100.597656 200.652344 99.96875 200.023438 C 98.710938 198.765625 98.710938 196.753906 99.96875 195.496094 L 139.292969 156.171875 C 140.550781 154.914062 142.5625 154.914062 143.824219 156.171875 C 145.082031 157.429688 145.082031 159.441406 143.824219 160.699219 L 104.5 200.023438 C 103.867188 200.652344 103.050781 200.96875 102.234375 200.96875 Z M 102.234375 200.96875 " fill-opacity="1" fill-rule="evenodd"/><path fill="#5c8ca9" d="M 141.558594 180.207031 L 119.789062 158.4375 C 119.789062 156.738281 121.234375 155.289062 122.996094 155.289062 L 141.558594 155.289062 C 143.320312 155.289062 144.765625 156.738281 144.765625 158.4375 L 144.765625 177.058594 C 144.765625 178.820312 143.320312 180.207031 141.558594 180.207031 Z M 141.558594 180.207031 " fill-opacity="1" fill-rule="evenodd"/><path fill="#5c8ca9" d="M 156.59375 146.605469 C 155.777344 146.605469 154.960938 146.292969 154.328125 145.664062 C 153.070312 144.40625 153.070312 142.390625 154.328125 141.132812 L 193.65625 101.808594 C 194.914062 100.550781 196.925781 100.550781 198.183594 101.808594 C 199.441406 103.066406 199.441406 105.082031 198.183594 106.339844 L 158.859375 145.664062 C 158.230469 146.292969 157.414062 146.605469 156.59375 146.605469 Z M 156.59375 146.605469 " fill-opacity="1" fill-rule="evenodd"/><path fill="#5c8ca9" d="M 175.21875 146.605469 L 156.65625 146.605469 C 154.894531 146.605469 153.449219 145.160156 153.449219 143.398438 L 153.449219 124.835938 C 153.449219 123.011719 154.894531 121.628906 156.65625 121.628906 L 178.429688 143.398438 C 178.429688 145.160156 176.980469 146.605469 175.21875 146.605469 Z M 175.21875 146.605469 " fill-opacity="1" fill-rule="evenodd"/></svg>