<svg xmlns="http://www.w3.org/2000/svg" xmlns:xlink="http://www.w3.org/1999/xlink" width="400" zoomAndPan="magnify" viewBox="0 0 300 299.999988" height="400" preserveAspectRatio="xMidYMid meet" version="1.0"><defs><clipPath id="f82c00c0b2"><path d="M 62 8 L 278.550781 8 L 278.550781 292 L 62 292 Z M 62 8 " clip-rule="nonzero"/></clipPath><clipPath id="a143b99757"><path d="M 21.300781 57 L 176 57 L 176 119 L 21.300781 119 Z M 21.300781 57 " clip-rule="nonzero"/></clipPath></defs><g clip-path="url(#f82c00c0b2)"><path fill="#5373fc" d="M 232.234375 45.566406 L 232.234375 8.433594 L 62.824219 8.433594 L 62.824219 44.25 L 182.4375 44.25 C 182.878906 44.25 183.320312 44.292969 183.753906 44.378906 C 184.1875 44.46875 184.609375 44.59375 185.019531 44.765625 C 185.429688 44.933594 185.820312 45.144531 186.1875 45.390625 C 186.554688 45.636719 186.898438 45.914062 187.210938 46.230469 C 187.523438 46.542969 187.804688 46.882812 188.050781 47.25 C 188.296875 47.621094 188.503906 48.007812 188.675781 48.417969 C 188.84375 48.828125 188.972656 49.25 189.058594 49.6875 C 189.144531 50.121094 189.1875 50.558594 189.1875 51.003906 L 189.1875 125.003906 C 189.1875 125.445312 189.144531 125.882812 189.058594 126.320312 C 188.972656 126.753906 188.84375 127.175781 188.675781 127.585938 C 188.503906 127.996094 188.296875 128.382812 188.050781 128.753906 C 187.804688 129.121094 187.523438 129.464844 187.210938 129.777344 C 186.898438 130.089844 186.554688 130.371094 186.1875 130.617188 C 185.820312 130.863281 185.429688 131.070312 185.019531 131.238281 C 184.609375 131.410156 184.1875 131.539062 183.753906 131.625 C 183.320312 131.710938 182.878906 131.753906 182.4375 131.753906 L 62.824219 131.753906 L 62.824219 291.398438 L 278.347656 291.398438 L 278.347656 52.320312 L 238.984375 52.320312 C 238.542969 52.320312 238.101562 52.277344 237.667969 52.191406 C 237.230469 52.101562 236.808594 51.976562 236.402344 51.804688 C 235.992188 51.636719 235.601562 51.429688 235.234375 51.179688 C 234.863281 50.933594 234.523438 50.65625 234.210938 50.34375 C 233.898438 50.027344 233.617188 49.6875 233.371094 49.320312 C 233.125 48.949219 232.917969 48.5625 232.746094 48.152344 C 232.578125 47.742188 232.449219 47.320312 232.363281 46.886719 C 232.277344 46.449219 232.234375 46.011719 232.234375 45.566406 Z M 232.234375 45.566406 " fill-opacity="1" fill-rule="nonzero"/></g><g clip-path="url(#a143b99757)"><path fill="#5373fc" d="M 175.683594 57.753906 L 21.234375 57.753906 L 21.234375 118.25 L 175.683594 118.25 Z M 71.46875 99.851562 C 74.070312 99.851562 76.457031 99.132812 78.625 97.691406 L 78.625 93.675781 L 69.847656 93.675781 C 69.40625 93.675781 68.964844 93.628906 68.53125 93.542969 C 68.09375 93.457031 67.671875 93.328125 67.265625 93.160156 C 66.855469 92.992188 66.464844 92.78125 66.097656 92.535156 C 65.726562 92.289062 65.386719 92.011719 65.074219 91.695312 C 64.761719 91.382812 64.480469 91.042969 64.234375 90.671875 C 63.988281 90.304688 63.78125 89.914062 63.609375 89.507812 C 63.441406 89.097656 63.3125 88.675781 63.226562 88.238281 C 63.140625 87.804688 63.097656 87.367188 63.097656 86.921875 C 63.097656 86.480469 63.140625 86.039062 63.226562 85.605469 C 63.3125 85.171875 63.441406 84.746094 63.609375 84.339844 C 63.78125 83.929688 63.988281 83.539062 64.234375 83.171875 C 64.480469 82.800781 64.761719 82.460938 65.074219 82.148438 C 65.386719 81.835938 65.726562 81.554688 66.097656 81.308594 C 66.464844 81.0625 66.855469 80.855469 67.265625 80.683594 C 67.671875 80.515625 68.09375 80.386719 68.53125 80.300781 C 68.964844 80.214844 69.40625 80.171875 69.847656 80.171875 L 85.378906 80.171875 C 85.820312 80.171875 86.257812 80.214844 86.695312 80.300781 C 87.128906 80.386719 87.550781 80.515625 87.960938 80.683594 C 88.371094 80.855469 88.761719 81.0625 89.128906 81.308594 C 89.496094 81.554688 89.839844 81.835938 90.152344 82.148438 C 90.464844 82.460938 90.746094 82.800781 90.992188 83.171875 C 91.238281 83.539062 91.445312 83.929688 91.613281 84.339844 C 91.785156 84.746094 91.914062 85.171875 92 85.605469 C 92.085938 86.039062 92.128906 86.480469 92.128906 86.921875 L 92.128906 100.832031 C 92.125 101.726562 91.949219 102.585938 91.605469 103.410156 C 91.261719 104.234375 90.769531 104.960938 90.136719 105.589844 C 88.917969 106.824219 87.585938 107.925781 86.148438 108.894531 C 84.707031 109.863281 83.1875 110.683594 81.582031 111.347656 C 79.980469 112.015625 78.328125 112.519531 76.625 112.855469 C 74.921875 113.191406 73.203125 113.359375 71.46875 113.355469 C 70.621094 113.324219 69.78125 113.253906 68.941406 113.144531 C 68.101562 113.03125 67.273438 112.882812 66.449219 112.691406 C 65.625 112.5 64.808594 112.269531 64.007812 112 C 63.207031 111.730469 62.417969 111.425781 61.644531 111.082031 C 60.875 110.734375 60.117188 110.355469 59.382812 109.9375 C 58.648438 109.519531 57.933594 109.070312 57.238281 108.582031 C 56.546875 108.097656 55.878906 107.582031 55.234375 107.03125 C 54.59375 106.480469 53.976562 105.902344 53.390625 105.292969 C 52.800781 104.683594 52.246094 104.050781 51.71875 103.386719 C 51.191406 102.722656 50.699219 102.039062 50.238281 101.328125 C 49.777344 100.617188 49.351562 99.890625 48.960938 99.136719 C 48.570312 98.386719 48.21875 97.621094 47.902344 96.835938 C 47.585938 96.050781 47.304688 95.253906 47.066406 94.441406 C 46.824219 93.632812 46.625 92.808594 46.464844 91.980469 C 46.300781 91.148438 46.179688 90.3125 46.101562 89.472656 C 46.019531 88.628906 45.980469 87.785156 45.980469 86.9375 C 45.980469 86.09375 46.019531 85.25 46.101562 84.40625 C 46.179688 83.566406 46.300781 82.730469 46.464844 81.898438 C 46.625 81.066406 46.824219 80.246094 47.066406 79.4375 C 47.304688 78.625 47.585938 77.828125 47.902344 77.042969 C 48.21875 76.257812 48.570312 75.488281 48.960938 74.738281 C 49.351562 73.988281 49.777344 73.257812 50.238281 72.550781 C 50.699219 71.839844 51.191406 71.152344 51.71875 70.492188 C 52.246094 69.828125 52.800781 69.195312 53.390625 68.585938 C 53.976562 67.976562 54.59375 67.398438 55.234375 66.847656 C 55.878906 66.296875 56.546875 65.78125 57.238281 65.292969 C 57.933594 64.808594 58.648438 64.355469 59.382812 63.941406 C 60.117188 63.523438 60.875 63.140625 61.644531 62.796875 C 62.417969 62.453125 63.207031 62.148438 64.007812 61.878906 C 64.808594 61.609375 65.625 61.378906 66.449219 61.1875 C 67.273438 60.996094 68.101562 60.847656 68.941406 60.734375 C 69.78125 60.625 70.621094 60.554688 71.46875 60.523438 C 73.207031 60.515625 74.929688 60.679688 76.636719 61.011719 C 78.339844 61.347656 79.996094 61.851562 81.605469 62.515625 C 83.210938 63.183594 84.734375 64.003906 86.175781 64.972656 C 87.617188 65.945312 88.949219 67.050781 90.171875 68.289062 C 90.507812 68.59375 90.8125 68.933594 91.082031 69.304688 C 91.351562 69.671875 91.582031 70.066406 91.773438 70.480469 C 91.960938 70.898438 92.109375 71.328125 92.210938 71.773438 C 92.3125 72.21875 92.367188 72.671875 92.378906 73.128906 C 92.390625 73.585938 92.355469 74.039062 92.273438 74.488281 C 92.191406 74.9375 92.0625 75.375 91.894531 75.800781 C 91.722656 76.226562 91.511719 76.628906 91.257812 77.007812 C 91.007812 77.390625 90.71875 77.742188 90.394531 78.066406 C 90.070312 78.386719 89.71875 78.675781 89.335938 78.925781 C 88.953125 79.175781 88.550781 79.386719 88.125 79.554688 C 87.699219 79.726562 87.261719 79.851562 86.8125 79.929688 C 86.363281 80.011719 85.90625 80.042969 85.449219 80.03125 C 84.992188 80.019531 84.542969 79.960938 84.097656 79.859375 C 83.652344 79.753906 83.222656 79.605469 82.804688 79.414062 C 82.390625 79.226562 81.996094 78.992188 81.628906 78.722656 C 81.261719 78.453125 80.921875 78.148438 80.617188 77.808594 C 80.242188 77.429688 79.847656 77.078125 79.429688 76.753906 C 79.015625 76.425781 78.578125 76.125 78.125 75.851562 C 77.671875 75.578125 77.199219 75.332031 76.71875 75.117188 C 76.234375 74.898438 75.738281 74.714844 75.230469 74.558594 C 74.722656 74.402344 74.207031 74.28125 73.6875 74.1875 C 73.164062 74.097656 72.636719 74.035156 72.109375 74.007812 C 71.578125 73.984375 71.050781 73.988281 70.519531 74.027344 C 69.992188 74.0625 69.46875 74.132812 68.949219 74.238281 C 68.425781 74.339844 67.914062 74.472656 67.410156 74.636719 C 66.90625 74.804688 66.417969 75 65.9375 75.226562 C 65.457031 75.453125 64.992188 75.707031 64.542969 75.988281 C 64.097656 76.273438 63.667969 76.582031 63.257812 76.917969 C 62.847656 77.253906 62.457031 77.613281 62.09375 77.996094 C 61.726562 78.378906 61.386719 78.785156 61.070312 79.210938 C 60.753906 79.636719 60.464844 80.078125 60.203125 80.539062 C 59.941406 81 59.707031 81.476562 59.503906 81.964844 C 59.300781 82.457031 59.128906 82.957031 58.988281 83.46875 C 58.84375 83.976562 58.734375 84.496094 58.65625 85.019531 C 58.578125 85.542969 58.535156 86.070312 58.519531 86.601562 C 58.507812 87.132812 58.527344 87.660156 58.578125 88.1875 C 58.628906 88.714844 58.714844 89.238281 58.832031 89.757812 C 58.945312 90.273438 59.09375 90.78125 59.273438 91.28125 C 59.453125 91.78125 59.660156 92.265625 59.898438 92.738281 C 60.136719 93.214844 60.40625 93.671875 60.699219 94.109375 C 60.992188 94.550781 61.316406 94.972656 61.660156 95.375 C 62.007812 95.773438 62.378906 96.152344 62.769531 96.507812 C 63.164062 96.863281 63.578125 97.195312 64.011719 97.5 C 64.445312 97.804688 64.894531 98.082031 65.363281 98.332031 C 65.832031 98.582031 66.3125 98.800781 66.808594 98.992188 C 67.304688 99.179688 67.808594 99.339844 68.320312 99.46875 C 68.835938 99.597656 69.355469 99.691406 69.882812 99.757812 C 70.410156 99.820312 70.9375 99.851562 71.46875 99.851562 Z M 111.269531 108.460938 C 111.269531 108.902344 111.226562 109.34375 111.140625 109.777344 C 111.054688 110.210938 110.925781 110.632812 110.757812 111.042969 C 110.585938 111.453125 110.378906 111.84375 110.132812 112.210938 C 109.886719 112.578125 109.605469 112.921875 109.292969 113.234375 C 108.980469 113.546875 108.640625 113.828125 108.269531 114.074219 C 107.902344 114.320312 107.511719 114.527344 107.101562 114.699219 C 106.691406 114.867188 106.269531 114.996094 105.835938 115.082031 C 105.402344 115.167969 104.960938 115.210938 104.519531 115.210938 C 104.074219 115.210938 103.636719 115.167969 103.203125 115.082031 C 102.765625 114.996094 102.34375 114.867188 101.933594 114.699219 C 101.527344 114.527344 101.136719 114.320312 100.769531 114.074219 C 100.398438 113.828125 100.058594 113.546875 99.746094 113.234375 C 99.429688 112.921875 99.152344 112.578125 98.90625 112.210938 C 98.660156 111.84375 98.449219 111.453125 98.28125 111.042969 C 98.113281 110.632812 97.984375 110.210938 97.898438 109.777344 C 97.808594 109.34375 97.765625 108.902344 97.765625 108.460938 L 97.765625 69.132812 C 97.765625 68.6875 97.808594 68.25 97.898438 67.8125 C 97.984375 67.378906 98.113281 66.957031 98.28125 66.546875 C 98.449219 66.136719 98.660156 65.75 98.90625 65.378906 C 99.152344 65.011719 99.429688 64.671875 99.746094 64.355469 C 100.058594 64.042969 100.398438 63.765625 100.769531 63.515625 C 101.136719 63.269531 101.527344 63.0625 101.933594 62.894531 C 102.34375 62.722656 102.765625 62.597656 103.203125 62.507812 C 103.636719 62.421875 104.074219 62.378906 104.519531 62.378906 C 104.960938 62.378906 105.402344 62.421875 105.835938 62.507812 C 106.269531 62.597656 106.691406 62.722656 107.101562 62.894531 C 107.511719 63.0625 107.902344 63.269531 108.269531 63.515625 C 108.640625 63.765625 108.980469 64.042969 109.292969 64.355469 C 109.605469 64.671875 109.886719 65.011719 110.132812 65.378906 C 110.378906 65.75 110.585938 66.136719 110.757812 66.546875 C 110.925781 66.957031 111.054688 67.378906 111.140625 67.8125 C 111.226562 68.25 111.269531 68.6875 111.269531 69.132812 Z M 131.121094 80.171875 L 147.628906 80.171875 C 148.074219 80.171875 148.511719 80.214844 148.949219 80.300781 C 149.382812 80.386719 149.804688 80.515625 150.214844 80.683594 C 150.625 80.855469 151.011719 81.0625 151.382812 81.308594 C 151.75 81.554688 152.089844 81.835938 152.40625 82.148438 C 152.71875 82.460938 153 82.800781 153.246094 83.171875 C 153.492188 83.539062 153.699219 83.929688 153.867188 84.339844 C 154.039062 84.746094 154.167969 85.171875 154.253906 85.605469 C 154.339844 86.039062 154.382812 86.480469 154.382812 86.921875 C 154.382812 87.367188 154.339844 87.804688 154.253906 88.238281 C 154.167969 88.675781 154.039062 89.097656 153.867188 89.507812 C 153.699219 89.914062 153.492188 90.304688 153.246094 90.671875 C 153 91.042969 152.71875 91.382812 152.40625 91.695312 C 152.089844 92.011719 151.75 92.289062 151.382812 92.535156 C 151.011719 92.78125 150.625 92.992188 150.214844 93.160156 C 149.804688 93.328125 149.382812 93.457031 148.949219 93.542969 C 148.511719 93.628906 148.074219 93.675781 147.628906 93.675781 L 131.527344 93.675781 L 131.964844 109.066406 C 131.988281 109.515625 131.964844 109.964844 131.898438 110.410156 C 131.832031 110.851562 131.722656 111.285156 131.570312 111.707031 C 131.417969 112.132812 131.222656 112.535156 130.988281 112.917969 C 130.757812 113.300781 130.488281 113.660156 130.183594 113.988281 C 129.878906 114.320312 129.542969 114.617188 129.179688 114.878906 C 128.8125 115.144531 128.425781 115.367188 128.019531 115.554688 C 127.609375 115.742188 127.183594 115.882812 126.746094 115.984375 C 126.308594 116.085938 125.867188 116.144531 125.417969 116.15625 L 125.214844 116.15625 C 124.777344 116.15625 124.347656 116.117188 123.921875 116.03125 C 123.492188 115.949219 123.078125 115.828125 122.675781 115.664062 C 122.273438 115.5 121.890625 115.300781 121.523438 115.0625 C 121.160156 114.824219 120.820312 114.554688 120.507812 114.253906 C 120.199219 113.949219 119.917969 113.621094 119.667969 113.261719 C 119.421875 112.90625 119.207031 112.527344 119.03125 112.128906 C 118.855469 111.730469 118.722656 111.320312 118.625 110.898438 C 118.53125 110.472656 118.476562 110.042969 118.460938 109.609375 L 117.28125 68.660156 C 117.265625 68.207031 117.296875 67.757812 117.375 67.3125 C 117.453125 66.867188 117.570312 66.433594 117.734375 66.011719 C 117.898438 65.589844 118.101562 65.191406 118.347656 64.808594 C 118.589844 64.429688 118.871094 64.078125 119.183594 63.753906 C 119.5 63.429688 119.84375 63.140625 120.214844 62.882812 C 120.589844 62.628906 120.984375 62.414062 121.402344 62.238281 C 121.816406 62.0625 122.246094 61.929688 122.691406 61.839844 C 123.132812 61.75 123.582031 61.703125 124.03125 61.703125 L 147.664062 61.703125 C 148.109375 61.703125 148.546875 61.746094 148.980469 61.835938 C 149.417969 61.921875 149.839844 62.046875 150.246094 62.21875 C 150.65625 62.386719 151.046875 62.597656 151.414062 62.84375 C 151.785156 63.089844 152.125 63.367188 152.4375 63.683594 C 152.753906 63.996094 153.03125 64.335938 153.277344 64.707031 C 153.523438 65.074219 153.734375 65.460938 153.902344 65.871094 C 154.070312 66.28125 154.199219 66.703125 154.285156 67.140625 C 154.371094 67.574219 154.417969 68.011719 154.417969 68.457031 C 154.417969 68.898438 154.371094 69.339844 154.285156 69.773438 C 154.199219 70.207031 154.070312 70.628906 153.902344 71.039062 C 153.734375 71.449219 153.523438 71.839844 153.277344 72.207031 C 153.03125 72.574219 152.753906 72.917969 152.4375 73.230469 C 152.125 73.542969 151.785156 73.824219 151.414062 74.070312 C 151.046875 74.316406 150.65625 74.523438 150.246094 74.695312 C 149.839844 74.863281 149.417969 74.992188 148.980469 75.078125 C 148.546875 75.164062 148.109375 75.207031 147.664062 75.207031 L 130.988281 75.207031 Z M 131.121094 80.171875 " fill-opacity="1" fill-rule="nonzero"/></g><path fill="#5373fc" d="M 269.46875 38.816406 L 245.738281 14.949219 L 245.738281 38.816406 Z M 269.46875 38.816406 " fill-opacity="1" fill-rule="nonzero"/></svg>