<svg xmlns="http://www.w3.org/2000/svg" xmlns:xlink="http://www.w3.org/1999/xlink" width="400" zoomAndPan="magnify" viewBox="0 0 300 299.999988" height="400" preserveAspectRatio="xMidYMid meet" version="1.0"><defs><clipPath id="ffb7bb0210"><path d="M 16.75 16.75 L 283 16.75 L 283 283 L 16.75 283 Z M 16.75 16.75 " clip-rule="nonzero"/></clipPath></defs><g clip-path="url(#ffb7bb0210)"><path fill="#00bf63" d="M 187.003906 98.800781 L 98.800781 187.003906 C 96.9375 188.882812 94.390625 189.9375 91.738281 189.9375 L 40.042969 189.9375 C 27.1875 189.9375 16.726562 179.476562 16.726562 166.621094 L 16.726562 40.042969 C 16.726562 27.1875 27.1875 16.726562 40.042969 16.726562 L 166.621094 16.726562 C 179.476562 16.726562 189.9375 27.1875 189.9375 40.042969 L 189.9375 91.738281 C 189.9375 94.390625 188.882812 96.9375 187.003906 98.800781 Z M 117.148438 57.457031 C 113.417969 55.925781 109.128906 56.765625 106.261719 59.628906 L 90.007812 75.871094 L 60.429688 46.304688 C 56.523438 42.402344 50.195312 42.402344 46.292969 46.304688 C 42.390625 50.210938 42.386719 56.539062 46.292969 60.441406 L 75.871094 90.019531 L 59.628906 106.261719 C 56.765625 109.128906 55.914062 113.417969 57.457031 117.148438 C 59.003906 120.878906 62.640625 123.316406 66.691406 123.316406 L 113.324219 123.316406 C 118.839844 123.316406 123.316406 118.839844 123.316406 113.324219 L 123.316406 66.691406 C 123.316406 62.640625 120.878906 59.003906 117.148438 57.457031 Z M 283.203125 133.308594 L 283.203125 259.886719 C 283.203125 272.742188 272.742188 283.203125 259.886719 283.203125 L 133.308594 283.203125 C 120.453125 283.203125 109.992188 272.742188 109.992188 259.886719 L 109.992188 208.1875 C 109.992188 205.539062 111.046875 202.992188 112.925781 201.128906 L 201.128906 112.925781 C 202.992188 111.046875 205.539062 109.992188 208.1875 109.992188 L 259.886719 109.992188 C 272.742188 109.992188 283.203125 120.453125 283.203125 133.308594 Z M 224.058594 209.921875 L 240.3125 193.667969 C 243.175781 190.800781 244.015625 186.511719 242.484375 182.78125 C 240.925781 179.050781 237.289062 176.613281 233.238281 176.613281 L 186.605469 176.613281 C 181.089844 176.613281 176.613281 181.089844 176.613281 186.605469 L 176.613281 233.238281 C 176.613281 237.289062 179.050781 240.925781 182.78125 242.472656 C 184.019531 242.976562 185.3125 243.230469 186.605469 243.230469 C 189.203125 243.230469 191.761719 242.21875 193.667969 240.300781 L 209.921875 224.042969 L 239.5 253.625 C 241.445312 255.570312 244.003906 256.554688 246.5625 256.554688 C 249.121094 256.554688 251.679688 255.582031 253.625 253.625 C 257.527344 249.71875 257.527344 243.390625 253.625 239.488281 Z M 224.058594 209.921875 " fill-opacity="1" fill-rule="nonzero"/></g></svg>