<svg xmlns="http://www.w3.org/2000/svg" xmlns:xlink="http://www.w3.org/1999/xlink" width="400" zoomAndPan="magnify" viewBox="0 0 300 299.999988" height="400" preserveAspectRatio="xMidYMid meet" version="1.0"><defs><clipPath id="b929866123"><path d="M 16.214844 14.742188 L 283.964844 14.742188 L 283.964844 285.492188 L 16.214844 285.492188 Z M 16.214844 14.742188 " clip-rule="nonzero"/></clipPath></defs><g clip-path="url(#b929866123)"><path fill="#cd1414" d="M 214.210938 150 C 235.894531 136.078125 253.191406 115.917969 263.535156 92.039062 L 283.746094 100.832031 C 277.402344 71.539062 270.703125 42.929688 263.867188 14.742188 C 239.632812 30.613281 215.578125 46.082031 191.804688 60.835938 L 212.257812 69.734375 C 196.300781 98.648438 166.617188 118.921875 131.988281 121.773438 L 16.273438 121.773438 L 16.273438 178.222656 L 131.988281 178.222656 C 166.617188 181.074219 196.300781 201.351562 212.257812 230.265625 L 191.804688 239.160156 C 215.578125 253.917969 239.632812 269.382812 263.867188 285.257812 C 270.703125 257.066406 277.402344 228.457031 283.746094 199.164062 L 263.535156 207.960938 C 253.191406 184.078125 235.894531 163.917969 214.210938 150 " fill-opacity="1" fill-rule="nonzero"/></g></svg>