<svg xmlns="http://www.w3.org/2000/svg" xmlns:xlink="http://www.w3.org/1999/xlink" width="400" zoomAndPan="magnify" viewBox="0 0 300 299.999988" height="400" preserveAspectRatio="xMidYMid meet" version="1.0"><defs><clipPath id="2286c24ec5"><path d="M 16.65625 16.65625 L 170 16.65625 L 170 227 L 16.65625 227 Z M 16.65625 16.65625 " clip-rule="nonzero"/></clipPath><clipPath id="e3e33f73fa"><path d="M 130 130 L 283.65625 130 L 283.65625 283.65625 L 130 283.65625 Z M 130 130 " clip-rule="nonzero"/></clipPath></defs><g clip-path="url(#2286c24ec5)"><path fill="#2496ca" d="M 102.375 135.710938 L 35.707031 135.710938 C 33.082031 135.710938 30.941406 133.574219 30.941406 130.949219 C 30.941406 128.328125 33.082031 126.1875 35.707031 126.1875 L 102.375 126.1875 C 105 126.1875 107.136719 128.328125 107.136719 130.949219 C 107.136719 133.574219 105 135.710938 102.375 135.710938 Z M 102.375 169.046875 L 35.707031 169.046875 C 33.082031 169.046875 30.941406 166.90625 30.941406 164.285156 C 30.941406 161.660156 33.082031 159.523438 35.707031 159.523438 L 102.375 159.523438 C 105 159.523438 107.136719 161.660156 107.136719 164.285156 C 107.136719 166.90625 105 169.046875 102.375 169.046875 Z M 102.375 202.382812 L 35.707031 202.382812 C 33.082031 202.382812 30.941406 200.242188 30.941406 197.621094 C 30.941406 194.996094 33.082031 192.859375 35.707031 192.859375 L 102.375 192.859375 C 105 192.859375 107.136719 194.996094 107.136719 197.621094 C 107.136719 200.242188 105 202.382812 102.375 202.382812 Z M 169.046875 121.425781 L 169.046875 111.902344 L 69.039062 111.902344 C 61.152344 111.902344 54.753906 105.5 54.753906 97.613281 L 54.753906 40.46875 C 54.753906 32.578125 61.152344 26.179688 69.039062 26.179688 L 169.046875 26.179688 L 169.046875 21.417969 C 169.046875 18.796875 166.90625 16.65625 164.285156 16.65625 L 21.417969 16.65625 C 18.796875 16.65625 16.65625 18.796875 16.65625 21.417969 L 16.65625 221.429688 C 16.65625 224.054688 18.796875 226.195312 21.417969 226.195312 L 121.425781 226.195312 L 121.425781 145.234375 C 121.425781 132.101562 132.101562 121.425781 145.234375 121.425781 L 169.046875 121.425781 " fill-opacity="1" fill-rule="nonzero"/></g><g clip-path="url(#e3e33f73fa)"><path fill="#2496ca" d="M 264.292969 259.527344 C 264.292969 264.773438 260.011719 269.054688 254.765625 269.054688 L 159.523438 269.054688 C 154.277344 269.054688 150 264.773438 150 259.527344 L 150 240.480469 C 150 237.855469 152.136719 235.71875 154.761719 235.71875 C 157.382812 235.71875 159.523438 237.855469 159.523438 240.480469 L 159.523438 259.527344 L 254.765625 259.527344 L 254.765625 240.480469 C 254.765625 237.855469 256.90625 235.71875 259.527344 235.71875 C 262.152344 235.71875 264.292969 237.855469 264.292969 240.480469 Z M 189.492188 222.828125 C 191.351562 220.964844 194.363281 220.964844 196.226562 222.828125 L 202.382812 228.984375 L 202.382812 150 C 202.382812 147.375 204.523438 145.234375 207.144531 145.234375 C 209.769531 145.234375 211.90625 147.375 211.90625 150 L 211.90625 228.984375 L 218.0625 222.828125 C 219.925781 220.964844 222.9375 220.964844 224.796875 222.828125 C 226.660156 224.6875 226.660156 227.699219 224.796875 229.5625 L 210.511719 243.847656 C 209.582031 244.777344 208.371094 245.242188 207.144531 245.242188 C 205.917969 245.242188 204.707031 244.777344 203.777344 243.847656 L 189.492188 229.5625 C 187.628906 227.699219 187.628906 224.6875 189.492188 222.828125 Z M 283.339844 145.234375 C 283.339844 137.347656 276.941406 130.949219 269.054688 130.949219 L 145.234375 130.949219 C 137.347656 130.949219 130.949219 137.347656 130.949219 145.234375 L 130.949219 269.054688 C 130.949219 276.941406 137.347656 283.339844 145.234375 283.339844 L 269.054688 283.339844 C 276.941406 283.339844 283.339844 276.941406 283.339844 269.054688 L 283.339844 145.234375 " fill-opacity="1" fill-rule="nonzero"/></g><path fill="#2496ca" d="M 178.570312 54.753906 L 164.285156 54.753906 L 164.285156 64.277344 L 173.808594 64.277344 C 176.433594 64.277344 178.570312 66.417969 178.570312 69.039062 C 178.570312 71.664062 176.433594 73.804688 173.808594 73.804688 L 164.285156 73.804688 L 164.285156 88.089844 C 164.285156 90.710938 162.144531 92.851562 159.523438 92.851562 C 156.898438 92.851562 154.761719 90.710938 154.761719 88.089844 L 154.761719 49.992188 C 154.761719 47.367188 156.898438 45.230469 159.523438 45.230469 L 178.570312 45.230469 C 181.195312 45.230469 183.332031 47.367188 183.332031 49.992188 C 183.332031 52.613281 181.195312 54.753906 178.570312 54.753906 Z M 145.234375 78.566406 C 145.234375 86.453125 138.835938 92.851562 130.949219 92.851562 L 121.425781 92.851562 C 118.800781 92.851562 116.664062 90.710938 116.664062 88.089844 L 116.664062 49.992188 C 116.664062 47.367188 118.800781 45.230469 121.425781 45.230469 L 130.949219 45.230469 C 138.835938 45.230469 145.234375 51.628906 145.234375 59.515625 Z M 92.851562 73.804688 L 88.089844 73.804688 L 88.089844 88.089844 C 88.089844 90.710938 85.949219 92.851562 83.328125 92.851562 C 80.703125 92.851562 78.566406 90.710938 78.566406 88.089844 L 78.566406 49.992188 C 78.566406 47.367188 80.703125 45.230469 83.328125 45.230469 L 92.851562 45.230469 C 100.738281 45.230469 107.136719 51.628906 107.136719 59.515625 C 107.136719 67.402344 100.738281 73.804688 92.851562 73.804688 Z M 197.621094 97.613281 L 197.621094 40.46875 C 197.621094 37.84375 195.480469 35.707031 192.859375 35.707031 L 69.039062 35.707031 C 66.417969 35.707031 64.277344 37.84375 64.277344 40.46875 L 64.277344 97.613281 C 64.277344 100.238281 66.417969 102.375 69.039062 102.375 L 192.859375 102.375 C 195.480469 102.375 197.621094 100.238281 197.621094 97.613281 " fill-opacity="1" fill-rule="nonzero"/><path fill="#2496ca" d="M 130.949219 54.753906 L 126.1875 54.753906 L 126.1875 83.328125 L 130.949219 83.328125 C 133.574219 83.328125 135.710938 81.1875 135.710938 78.566406 L 135.710938 59.515625 C 135.710938 56.894531 133.574219 54.753906 130.949219 54.753906 " fill-opacity="1" fill-rule="nonzero"/><path fill="#2496ca" d="M 92.851562 54.753906 L 88.089844 54.753906 L 88.089844 64.277344 L 92.851562 64.277344 C 95.476562 64.277344 97.613281 62.140625 97.613281 59.515625 C 97.613281 56.894531 95.476562 54.753906 92.851562 54.753906 " fill-opacity="1" fill-rule="nonzero"/></svg>