<svg xmlns="http://www.w3.org/2000/svg" xmlns:xlink="http://www.w3.org/1999/xlink" width="400" zoomAndPan="magnify" viewBox="0 0 300 299.999988" height="400" preserveAspectRatio="xMidYMid meet" version="1.0"><defs><clipPath id="7ecbe84558"><path d="M 6.851562 6 L 293 6 L 293 292.179688 L 6.851562 292.179688 Z M 6.851562 6 " clip-rule="nonzero"/></clipPath></defs><path fill="#2da9e2" d="M 132.523438 138.53125 L 130.097656 138.53125 L 130.097656 146.089844 C 131.765625 146.121094 134.816406 146.214844 135.660156 145.042969 C 135.9375 144.761719 136.164062 144.445312 136.34375 144.089844 C 136.519531 143.738281 136.640625 143.367188 136.707031 142.976562 C 136.769531 142.585938 136.773438 142.199219 136.71875 141.804688 C 136.660156 141.414062 136.546875 141.042969 136.375 140.683594 C 136.203125 140.328125 135.984375 140.007812 135.714844 139.71875 C 135.441406 139.433594 135.132812 139.191406 134.789062 139 C 134.445312 138.804688 134.078125 138.667969 133.691406 138.589844 C 133.304688 138.507812 132.914062 138.488281 132.523438 138.53125 Z M 132.523438 138.53125 " fill-opacity="1" fill-rule="nonzero"/><path fill="#2da9e2" d="M 158.242188 139.339844 L 158.242188 157.832031 C 161.574219 157.863281 164.929688 158.144531 165.945312 154.550781 C 166.488281 152.359375 166.691406 150.136719 166.554688 147.882812 C 166.417969 145.628906 165.945312 143.445312 165.136719 141.335938 C 163.980469 139.363281 160.636719 139.21875 158.242188 139.339844 Z M 158.242188 139.339844 " fill-opacity="1" fill-rule="nonzero"/><path fill="#2da9e2" d="M 88.972656 209.796875 L 88.972656 192.730469 L 71.949219 192.730469 Z M 88.972656 209.796875 " fill-opacity="1" fill-rule="nonzero"/><g clip-path="url(#7ecbe84558)"><path fill="#2da9e2" d="M 6.621094 149.175781 C 6.621094 151.515625 6.679688 153.859375 6.792969 156.195312 C 6.910156 158.535156 7.082031 160.871094 7.308594 163.203125 C 7.539062 165.535156 7.828125 167.855469 8.167969 170.175781 C 8.511719 172.492188 8.914062 174.796875 9.371094 177.09375 C 9.828125 179.390625 10.339844 181.675781 10.910156 183.949219 C 11.480469 186.21875 12.101562 188.476562 12.785156 190.71875 C 13.464844 192.960938 14.199219 195.183594 14.988281 197.386719 C 15.777344 199.59375 16.617188 201.777344 17.515625 203.941406 C 18.410156 206.105469 19.359375 208.246094 20.359375 210.363281 C 21.363281 212.480469 22.414062 214.574219 23.519531 216.636719 C 24.625 218.703125 25.777344 220.742188 26.980469 222.75 C 28.1875 224.757812 29.4375 226.738281 30.738281 228.683594 C 32.039062 230.632812 33.390625 232.546875 34.785156 234.425781 C 36.179688 236.308594 37.621094 238.15625 39.105469 239.964844 C 40.59375 241.777344 42.121094 243.546875 43.695312 245.285156 C 45.265625 247.019531 46.882812 248.714844 48.539062 250.371094 C 50.195312 252.027344 51.890625 253.640625 53.625 255.214844 C 55.359375 256.789062 57.132812 258.316406 58.945312 259.804688 C 60.753906 261.289062 62.601562 262.730469 64.480469 264.125 C 66.363281 265.519531 68.277344 266.867188 70.222656 268.167969 C 72.171875 269.46875 74.148438 270.722656 76.160156 271.925781 C 78.167969 273.132812 80.207031 274.285156 82.269531 275.390625 C 84.335938 276.492188 86.429688 277.546875 88.546875 278.546875 C 90.664062 279.550781 92.804688 280.496094 94.96875 281.394531 C 97.128906 282.289062 99.316406 283.132812 101.519531 283.921875 C 103.726562 284.710938 105.949219 285.445312 108.191406 286.125 C 110.429688 286.804688 112.6875 287.429688 114.960938 288 C 117.230469 288.566406 119.515625 289.082031 121.8125 289.539062 C 124.109375 289.996094 126.417969 290.394531 128.734375 290.738281 C 131.050781 291.082031 133.375 291.371094 135.707031 291.597656 C 138.035156 291.828125 140.371094 292 142.710938 292.117188 C 145.050781 292.230469 147.390625 292.289062 149.734375 292.289062 C 152.074219 292.289062 154.417969 292.230469 156.757812 292.117188 C 159.09375 292 161.429688 291.828125 163.761719 291.597656 C 166.09375 291.371094 168.414062 291.082031 170.734375 290.738281 C 173.050781 290.394531 175.355469 289.996094 177.652344 289.539062 C 179.949219 289.082031 182.234375 288.566406 184.507812 288 C 186.777344 287.429688 189.035156 286.804688 191.277344 286.125 C 193.519531 285.445312 195.742188 284.710938 197.945312 283.921875 C 200.152344 283.132812 202.335938 282.289062 204.5 281.394531 C 206.664062 280.496094 208.804688 279.550781 210.921875 278.546875 C 213.039062 277.546875 215.132812 276.492188 217.195312 275.390625 C 219.261719 274.285156 221.300781 273.132812 223.308594 271.925781 C 225.316406 270.722656 227.296875 269.46875 229.242188 268.167969 C 231.191406 266.867188 233.105469 265.519531 234.984375 264.125 C 236.867188 262.730469 238.714844 261.289062 240.523438 259.804688 C 242.332031 258.316406 244.105469 256.789062 245.84375 255.214844 C 247.578125 253.640625 249.273438 252.027344 250.929688 250.371094 C 252.585938 248.714844 254.199219 247.019531 255.773438 245.285156 C 257.347656 243.546875 258.875 241.777344 260.363281 239.964844 C 261.847656 238.15625 263.289062 236.308594 264.683594 234.425781 C 266.078125 232.546875 267.425781 230.632812 268.726562 228.683594 C 270.027344 226.738281 271.28125 224.757812 272.484375 222.75 C 273.691406 220.742188 274.84375 218.703125 275.949219 216.636719 C 277.050781 214.574219 278.105469 212.480469 279.105469 210.363281 C 280.109375 208.246094 281.054688 206.105469 281.953125 203.941406 C 282.847656 201.777344 283.691406 199.59375 284.480469 197.390625 C 285.269531 195.183594 286.003906 192.960938 286.683594 190.71875 C 287.363281 188.476562 287.988281 186.222656 288.558594 183.949219 C 289.125 181.675781 289.640625 179.394531 290.097656 177.09375 C 290.554688 174.796875 290.953125 172.492188 291.296875 170.175781 C 291.640625 167.859375 291.929688 165.535156 292.15625 163.203125 C 292.386719 160.871094 292.558594 158.539062 292.675781 156.199219 C 292.789062 153.859375 292.847656 151.519531 292.847656 149.175781 C 285.015625 -40.628906 14.480469 -40.683594 6.621094 149.175781 Z M 85.917969 58.414062 C 86.242188 58.289062 86.574219 58.195312 86.914062 58.144531 C 87.257812 58.089844 87.601562 58.070312 87.949219 58.09375 C 88.292969 58.117188 88.632812 58.175781 88.964844 58.269531 C 89.296875 58.367188 89.617188 58.496094 89.921875 58.664062 C 90.226562 58.828125 90.507812 59.027344 90.769531 59.253906 C 91.027344 59.484375 91.261719 59.738281 91.464844 60.015625 C 91.671875 60.292969 91.84375 60.59375 91.984375 60.910156 C 92.121094 61.226562 92.226562 61.554688 92.292969 61.894531 C 92.359375 62.234375 92.390625 62.578125 92.382812 62.925781 C 92.375 63.269531 92.328125 63.613281 92.246094 63.949219 C 92.160156 64.285156 92.042969 64.609375 91.890625 64.917969 C 91.734375 65.230469 91.546875 65.519531 91.332031 65.789062 C 91.113281 66.058594 90.867188 66.300781 90.597656 66.515625 C 90.324219 66.730469 90.035156 66.914062 89.722656 67.066406 C 89.410156 67.21875 89.085938 67.332031 88.75 67.414062 C 88.414062 67.496094 88.070312 67.535156 87.726562 67.542969 C 87.171875 67.550781 86.632812 67.464844 86.109375 67.285156 C 85.585938 67.101562 85.109375 66.839844 84.679688 66.492188 C 84.25 66.140625 83.890625 65.730469 83.605469 65.257812 C 83.320312 64.785156 83.121094 64.273438 83.015625 63.730469 C 82.90625 63.1875 82.894531 62.644531 82.980469 62.097656 C 83.0625 61.550781 83.238281 61.03125 83.503906 60.546875 C 83.769531 60.0625 84.109375 59.636719 84.523438 59.269531 C 84.9375 58.902344 85.402344 58.617188 85.917969 58.414062 Z M 70.609375 59.414062 C 70.886719 59.144531 71.191406 58.910156 71.523438 58.71875 C 71.859375 58.523438 72.210938 58.371094 72.582031 58.261719 C 72.953125 58.15625 73.332031 58.09375 73.714844 58.078125 C 74.101562 58.0625 74.484375 58.09375 74.863281 58.171875 C 75.242188 58.25 75.605469 58.371094 75.953125 58.539062 C 76.300781 58.703125 76.625 58.910156 76.921875 59.15625 C 77.21875 59.402344 77.484375 59.679688 77.714844 59.992188 C 77.945312 60.300781 78.132812 60.636719 78.28125 60.992188 C 78.429688 61.347656 78.53125 61.71875 78.589844 62.101562 C 78.648438 62.480469 78.660156 62.867188 78.621094 63.25 C 78.585938 63.636719 78.503906 64.007812 78.375 64.375 C 78.25 64.738281 78.078125 65.082031 77.867188 65.40625 C 77.65625 65.726562 77.40625 66.019531 77.125 66.28125 C 76.839844 66.546875 76.53125 66.769531 76.191406 66.957031 C 75.851562 67.140625 75.496094 67.285156 75.125 67.382812 C 74.75 67.484375 74.371094 67.535156 73.984375 67.542969 C 73.515625 67.535156 73.058594 67.460938 72.613281 67.320312 C 72.167969 67.179688 71.75 66.980469 71.363281 66.71875 C 70.976562 66.453125 70.632812 66.140625 70.335938 65.777344 C 70.042969 65.417969 69.804688 65.019531 69.625 64.585938 C 69.445312 64.15625 69.332031 63.707031 69.285156 63.242188 C 69.234375 62.773438 69.253906 62.3125 69.34375 61.851562 C 69.429688 61.394531 69.582031 60.957031 69.796875 60.539062 C 70.011719 60.125 70.28125 59.75 70.609375 59.414062 Z M 58.4375 58.414062 C 58.761719 58.289062 59.09375 58.199219 59.433594 58.144531 C 59.777344 58.089844 60.121094 58.074219 60.464844 58.097656 C 60.808594 58.121094 61.148438 58.179688 61.480469 58.277344 C 61.8125 58.371094 62.132812 58.503906 62.433594 58.667969 C 62.738281 58.835938 63.019531 59.03125 63.28125 59.261719 C 63.539062 59.488281 63.773438 59.742188 63.976562 60.019531 C 64.179688 60.300781 64.351562 60.597656 64.492188 60.914062 C 64.632812 61.230469 64.734375 61.558594 64.800781 61.898438 C 64.867188 62.238281 64.898438 62.578125 64.890625 62.925781 C 64.882812 63.269531 64.835938 63.613281 64.753906 63.949219 C 64.671875 64.285156 64.550781 64.605469 64.398438 64.917969 C 64.246094 65.226562 64.058594 65.515625 63.84375 65.785156 C 63.625 66.054688 63.382812 66.296875 63.109375 66.511719 C 62.839844 66.726562 62.550781 66.910156 62.238281 67.0625 C 61.929688 67.214844 61.605469 67.332031 61.269531 67.414062 C 60.933594 67.492188 60.589844 67.535156 60.246094 67.542969 C 59.691406 67.550781 59.152344 67.464844 58.628906 67.285156 C 58.105469 67.105469 57.625 66.84375 57.195312 66.496094 C 56.761719 66.144531 56.40625 65.734375 56.117188 65.261719 C 55.832031 64.785156 55.632812 64.277344 55.527344 63.734375 C 55.417969 63.191406 55.40625 62.644531 55.492188 62.097656 C 55.574219 61.546875 55.75 61.03125 56.015625 60.546875 C 56.285156 60.058594 56.625 59.632812 57.039062 59.265625 C 57.457031 58.902344 57.921875 58.617188 58.4375 58.414062 Z M 147.398438 238.941406 C 147.183594 238.71875 146.992188 238.476562 146.824219 238.21875 C 146.65625 237.957031 146.515625 237.683594 146.402344 237.394531 C 146.289062 237.109375 146.203125 236.8125 146.148438 236.507812 C 146.089844 236.203125 146.0625 235.898438 146.066406 235.585938 C 146.070312 235.277344 146.105469 234.972656 146.167969 234.667969 C 146.230469 234.367188 146.320312 234.070312 146.441406 233.785156 C 146.558594 233.5 146.707031 233.230469 146.878906 232.972656 C 147.050781 232.71875 147.246094 232.480469 147.464844 232.261719 C 147.683594 232.042969 147.921875 231.847656 148.179688 231.671875 C 148.4375 231.5 148.707031 231.355469 148.992188 231.234375 C 149.277344 231.113281 149.570312 231.023438 149.875 230.960938 C 150.175781 230.898438 150.484375 230.867188 150.792969 230.863281 C 151.101562 230.859375 151.410156 230.886719 151.710938 230.941406 C 152.015625 231 152.3125 231.082031 152.601562 231.199219 C 152.886719 231.3125 153.160156 231.453125 153.421875 231.617188 C 153.683594 231.785156 153.925781 231.976562 154.148438 232.191406 C 154.363281 232.414062 154.550781 232.65625 154.71875 232.917969 C 154.886719 233.175781 155.027344 233.449219 155.140625 233.738281 C 155.253906 234.027344 155.339844 234.320312 155.398438 234.625 C 155.453125 234.929688 155.480469 235.238281 155.476562 235.546875 C 155.472656 235.855469 155.441406 236.160156 155.378906 236.464844 C 155.316406 236.765625 155.222656 237.0625 155.105469 237.347656 C 154.984375 237.632812 154.839844 237.902344 154.664062 238.160156 C 154.492188 238.417969 154.296875 238.652344 154.078125 238.871094 C 153.859375 239.089844 153.621094 239.289062 153.367188 239.460938 C 153.109375 239.632812 152.835938 239.777344 152.550781 239.898438 C 152.265625 240.019531 151.972656 240.109375 151.671875 240.171875 C 151.367188 240.234375 151.0625 240.269531 150.75 240.269531 C 150.441406 240.273438 150.136719 240.246094 149.832031 240.191406 C 149.527344 240.136719 149.230469 240.050781 148.945312 239.9375 C 148.65625 239.820312 148.382812 239.679688 148.121094 239.515625 C 147.863281 239.347656 147.621094 239.15625 147.398438 238.941406 Z M 184.132812 230.742188 C 184.132812 231.367188 184.070312 231.984375 183.949219 232.597656 C 183.824219 233.207031 183.644531 233.804688 183.40625 234.378906 C 183.167969 234.957031 182.875 235.503906 182.527344 236.023438 C 182.179688 236.542969 181.785156 237.023438 181.34375 237.464844 C 180.902344 237.90625 180.421875 238.296875 179.902344 238.644531 C 179.386719 238.992188 178.835938 239.285156 178.261719 239.523438 C 177.683594 239.765625 177.089844 239.945312 176.476562 240.066406 C 175.867188 240.1875 175.246094 240.25 174.625 240.25 L 165.113281 240.25 C 164.804688 240.246094 164.5 240.210938 164.199219 240.144531 C 163.898438 240.078125 163.605469 239.984375 163.324219 239.863281 C 163.039062 239.742188 162.769531 239.59375 162.515625 239.417969 C 162.261719 239.246094 162.027344 239.046875 161.8125 238.828125 C 161.59375 238.605469 161.402344 238.367188 161.234375 238.109375 C 161.0625 237.851562 160.921875 237.582031 160.804688 237.296875 C 160.6875 237.011719 160.597656 236.714844 160.539062 236.414062 C 160.480469 236.109375 160.449219 235.804688 160.449219 235.496094 C 160.449219 235.1875 160.480469 234.882812 160.539062 234.582031 C 160.597656 234.277344 160.6875 233.984375 160.804688 233.699219 C 160.921875 233.414062 161.0625 233.140625 161.234375 232.882812 C 161.402344 232.625 161.59375 232.386719 161.8125 232.167969 C 162.027344 231.945312 162.261719 231.75 162.515625 231.574219 C 162.769531 231.402344 163.039062 231.253906 163.324219 231.128906 C 163.605469 231.007812 163.898438 230.914062 164.199219 230.847656 C 164.5 230.785156 164.804688 230.75 165.113281 230.742188 L 174.625 230.742188 L 174.625 221.234375 C 174.625 220.921875 174.652344 220.613281 174.714844 220.304688 C 174.777344 220 174.867188 219.703125 174.984375 219.414062 C 175.105469 219.125 175.25 218.851562 175.425781 218.59375 C 175.597656 218.332031 175.796875 218.09375 176.015625 217.871094 C 176.238281 217.652344 176.476562 217.453125 176.734375 217.28125 C 176.996094 217.105469 177.269531 216.960938 177.558594 216.839844 C 177.847656 216.722656 178.144531 216.632812 178.449219 216.570312 C 178.757812 216.507812 179.066406 216.480469 179.378906 216.480469 C 179.691406 216.480469 180 216.507812 180.304688 216.570312 C 180.613281 216.632812 180.910156 216.722656 181.199219 216.839844 C 181.484375 216.960938 181.757812 217.105469 182.019531 217.28125 C 182.277344 217.453125 182.519531 217.652344 182.738281 217.871094 C 182.960938 218.09375 183.15625 218.332031 183.332031 218.59375 C 183.503906 218.851562 183.652344 219.125 183.769531 219.414062 C 183.890625 219.703125 183.980469 220 184.042969 220.304688 C 184.101562 220.613281 184.132812 220.921875 184.132812 221.234375 Z M 217.867188 223.824219 L 194.234375 200.242188 C 190.53125 202.578125 186.625 204.492188 182.515625 205.992188 C 178.402344 207.488281 174.179688 208.539062 169.84375 209.132812 L 169.84375 221.257812 C 169.84375 221.570312 169.8125 221.878906 169.753906 222.1875 C 169.691406 222.492188 169.601562 222.789062 169.484375 223.078125 C 169.363281 223.367188 169.214844 223.640625 169.042969 223.898438 C 168.871094 224.160156 168.671875 224.398438 168.453125 224.621094 C 168.230469 224.839844 167.992188 225.039062 167.730469 225.210938 C 167.472656 225.386719 167.199219 225.53125 166.910156 225.652344 C 166.621094 225.769531 166.324219 225.859375 166.019531 225.921875 C 165.710938 225.984375 165.402344 226.011719 165.089844 226.011719 L 93.773438 226.011719 C 93.140625 226.019531 92.53125 225.90625 91.945312 225.664062 C 91.359375 225.425781 90.84375 225.082031 90.398438 224.632812 L 57.113281 191.351562 C 56.195312 190.433594 55.734375 189.324219 55.734375 188.023438 L 55.734375 78.621094 C 55.734375 78.3125 55.765625 78 55.828125 77.695312 C 55.886719 77.390625 55.976562 77.089844 56.097656 76.804688 C 56.21875 76.515625 56.363281 76.242188 56.539062 75.980469 C 56.710938 75.722656 56.90625 75.480469 57.128906 75.261719 C 57.347656 75.039062 57.589844 74.84375 57.847656 74.667969 C 58.109375 74.496094 58.382812 74.347656 58.671875 74.230469 C 58.960938 74.109375 59.257812 74.019531 59.5625 73.960938 C 59.867188 73.898438 60.179688 73.867188 60.492188 73.867188 L 165.089844 73.867188 C 165.402344 73.867188 165.710938 73.898438 166.015625 73.960938 C 166.324219 74.019531 166.621094 74.109375 166.910156 74.230469 C 167.199219 74.347656 167.472656 74.496094 167.730469 74.667969 C 167.992188 74.84375 168.230469 75.039062 168.453125 75.261719 C 168.671875 75.480469 168.871094 75.722656 169.042969 75.980469 C 169.214844 76.242188 169.363281 76.515625 169.484375 76.804688 C 169.601562 77.089844 169.691406 77.390625 169.753906 77.695312 C 169.8125 78 169.84375 78.3125 169.84375 78.621094 L 169.84375 88.035156 C 211.230469 92.710938 235.996094 141.695312 215.058594 177.992188 L 238.839844 201.726562 C 239.210938 202.066406 239.566406 202.425781 239.898438 202.800781 C 240.234375 203.175781 240.550781 203.570312 240.847656 203.976562 C 241.144531 204.382812 241.421875 204.804688 241.675781 205.242188 C 241.929688 205.675781 242.164062 206.121094 242.375 206.582031 C 242.585938 207.039062 242.773438 207.503906 242.9375 207.984375 C 243.101562 208.460938 243.242188 208.941406 243.355469 209.433594 C 243.472656 209.925781 243.566406 210.417969 243.632812 210.917969 C 243.699219 211.417969 243.742188 211.921875 243.757812 212.425781 C 243.777344 212.929688 243.769531 213.429688 243.734375 213.933594 C 243.703125 214.4375 243.644531 214.9375 243.5625 215.433594 C 243.480469 215.933594 243.375 216.425781 243.242188 216.910156 C 243.109375 217.398438 242.957031 217.878906 242.777344 218.347656 C 242.597656 218.820312 242.398438 219.28125 242.171875 219.734375 C 241.949219 220.183594 241.699219 220.621094 241.433594 221.050781 C 241.164062 221.476562 240.875 221.890625 240.566406 222.289062 C 240.257812 222.6875 239.929688 223.066406 239.582031 223.433594 C 239.234375 223.800781 238.871094 224.148438 238.488281 224.476562 C 238.109375 224.804688 237.710938 225.117188 237.296875 225.40625 C 236.886719 225.695312 236.460938 225.964844 236.023438 226.210938 C 235.582031 226.460938 235.132812 226.6875 234.671875 226.890625 C 234.210938 227.09375 233.738281 227.273438 233.261719 227.429688 C 232.78125 227.585938 232.296875 227.71875 231.804688 227.824219 C 231.308594 227.933594 230.8125 228.019531 230.3125 228.078125 C 229.8125 228.136719 229.308594 228.167969 228.804688 228.179688 C 228.300781 228.1875 227.796875 228.171875 227.296875 228.132812 C 226.792969 228.089844 226.292969 228.023438 225.796875 227.933594 C 225.300781 227.84375 224.8125 227.730469 224.328125 227.589844 C 223.84375 227.449219 223.367188 227.289062 222.898438 227.101562 C 222.429688 226.914062 221.972656 226.707031 221.523438 226.476562 C 221.078125 226.242188 220.640625 225.988281 220.21875 225.714844 C 219.796875 225.4375 219.386719 225.144531 218.996094 224.828125 C 218.601562 224.511719 218.226562 224.179688 217.867188 223.824219 Z M 217.867188 223.824219 " fill-opacity="1" fill-rule="nonzero"/></g><path fill="#2da9e2" d="M 161.238281 96.878906 C 115.75 96.460938 91.808594 152.839844 124.535156 185.171875 C 125.738281 186.371094 126.996094 187.507812 128.308594 188.582031 C 129.625 189.65625 130.988281 190.667969 132.402344 191.609375 C 133.816406 192.550781 135.269531 193.417969 136.769531 194.21875 C 138.265625 195.015625 139.800781 195.742188 141.371094 196.390625 C 142.941406 197.039062 144.539062 197.609375 146.164062 198.097656 C 147.789062 198.589844 149.433594 199.003906 151.097656 199.332031 C 152.765625 199.664062 154.441406 199.910156 156.132812 200.078125 C 157.824219 200.242188 159.515625 200.328125 161.214844 200.328125 C 162.914062 200.328125 164.605469 200.242188 166.296875 200.078125 C 167.988281 199.910156 169.664062 199.664062 171.332031 199.332031 C 172.996094 199.003906 174.640625 198.589844 176.265625 198.097656 C 177.890625 197.609375 179.488281 197.039062 181.058594 196.390625 C 182.628906 195.742188 184.164062 195.015625 185.660156 194.21875 C 187.160156 193.417969 188.613281 192.550781 190.027344 191.609375 C 191.441406 190.667969 192.804688 189.65625 194.121094 188.582031 C 195.433594 187.507812 196.691406 186.371094 197.894531 185.171875 C 230.617188 152.863281 206.683594 96.484375 161.238281 96.878906 Z M 142.507812 150.082031 C 140.199219 153.242188 134.097656 153.09375 130.097656 152.984375 L 130.097656 165.535156 L 121.441406 165.535156 L 121.441406 131.683594 L 135.707031 131.683594 C 145.59375 130.796875 147.300781 144.21875 142.507812 150.082031 Z M 167.515625 164.585938 C 161.59375 165.605469 155.632812 165.925781 149.636719 165.535156 L 149.636719 131.683594 L 162.378906 131.683594 C 163.347656 131.585938 164.3125 131.621094 165.273438 131.792969 C 166.230469 131.960938 167.148438 132.257812 168.027344 132.683594 C 168.902344 133.105469 169.707031 133.640625 170.433594 134.285156 C 171.164062 134.933594 171.789062 135.664062 172.316406 136.484375 C 176.878906 144.765625 177.109375 160.425781 167.515625 164.585938 Z M 199.132812 144.851562 L 199.132812 151.699219 L 188.386719 151.699219 L 188.386719 165.535156 L 179.734375 165.535156 L 179.734375 131.683594 L 200.988281 131.683594 L 200.988281 138.957031 L 188.386719 138.957031 L 188.386719 144.851562 Z M 199.132812 144.851562 " fill-opacity="1" fill-rule="nonzero"/><path fill="#2da9e2" d="M 209.6875 186.074219 C 207.398438 189.15625 204.785156 191.929688 201.84375 194.394531 L 224.617188 217.121094 C 224.886719 217.382812 225.175781 217.617188 225.488281 217.820312 C 225.804688 218.027344 226.132812 218.199219 226.480469 218.339844 C 226.828125 218.480469 227.1875 218.585938 227.554688 218.65625 C 227.921875 218.726562 228.292969 218.757812 228.667969 218.757812 C 229.042969 218.753906 229.414062 218.714844 229.78125 218.640625 C 230.148438 218.566406 230.503906 218.457031 230.847656 218.3125 C 231.195312 218.167969 231.523438 217.992188 231.835938 217.785156 C 232.144531 217.574219 232.433594 217.339844 232.699219 217.074219 C 232.960938 216.808594 233.199219 216.523438 233.402344 216.210938 C 233.609375 215.902344 233.785156 215.574219 233.929688 215.230469 C 234.070312 214.886719 234.175781 214.53125 234.25 214.164062 C 234.324219 213.800781 234.359375 213.429688 234.359375 213.058594 C 234.359375 212.683594 234.324219 212.316406 234.25 211.949219 C 234.175781 211.582031 234.070312 211.226562 233.929688 210.882812 C 233.785156 210.539062 233.609375 210.210938 233.402344 209.902344 C 233.199219 209.589844 232.960938 209.304688 232.699219 209.039062 Z M 209.6875 186.074219 " fill-opacity="1" fill-rule="nonzero"/></svg>