<svg xmlns="http://www.w3.org/2000/svg" xmlns:xlink="http://www.w3.org/1999/xlink" width="400" zoomAndPan="magnify" viewBox="0 0 300 299.999988" height="400" preserveAspectRatio="xMidYMid meet" version="1.0"><defs><clipPath id="7c8e66cc65"><path d="M 7.316406 5.9375 L 293.816406 5.9375 L 293.816406 292.4375 L 7.316406 292.4375 Z M 7.316406 5.9375 " clip-rule="nonzero"/></clipPath></defs><g clip-path="url(#7c8e66cc65)"><path fill="#2da9e2" d="M 150.617188 5.9375 C 229.699219 5.9375 293.816406 70.050781 293.816406 149.234375 C 293.816406 228.320312 229.699219 292.4375 150.617188 292.4375 C 71.433594 292.4375 7.316406 228.320312 7.316406 149.234375 C 7.316406 70.050781 71.433594 5.9375 150.617188 5.9375 Z M 150.617188 12.710938 C 225.957031 12.710938 287.039062 73.894531 287.039062 149.234375 C 287.039062 224.578125 225.957031 285.660156 150.617188 285.660156 C 75.273438 285.660156 14.089844 224.578125 14.089844 149.234375 C 14.089844 73.894531 75.273438 12.710938 150.617188 12.710938 Z M 150.617188 12.710938 " fill-opacity="1" fill-rule="evenodd"/></g><path fill="#2496ca" d="M 154.660156 177.753906 L 79.726562 177.753906 C 76.589844 177.753906 73.960938 175.226562 73.960938 172.089844 L 73.960938 68.636719 C 73.960938 65.5 76.589844 62.871094 79.726562 62.871094 L 139.898438 62.871094 C 141.007812 62.871094 141.917969 63.78125 141.917969 64.894531 L 141.917969 82.492188 C 141.917969 82.894531 142.324219 83.300781 142.726562 83.300781 L 158.300781 83.300781 C 159.414062 83.300781 160.324219 84.210938 160.324219 85.324219 L 160.324219 128 C 160.324219 129.113281 159.414062 130.023438 158.300781 130.023438 L 154.863281 130.023438 L 154.863281 136.292969 L 158.300781 136.292969 C 159.414062 136.292969 160.324219 137.203125 160.324219 138.3125 L 160.324219 149.335938 C 160.324219 150.449219 159.414062 151.359375 158.300781 151.359375 L 145.457031 151.359375 C 144.347656 151.359375 143.4375 150.449219 143.4375 149.335938 L 143.4375 145.191406 L 132.414062 154.496094 L 143.4375 163.699219 L 143.4375 159.550781 C 143.4375 158.4375 144.347656 157.527344 145.457031 157.527344 L 158.300781 157.527344 C 159.414062 157.527344 160.324219 158.4375 160.324219 159.550781 L 160.324219 172.089844 C 160.324219 175.226562 157.796875 177.753906 154.660156 177.753906 Z M 79.726562 66.917969 C 79.21875 66.917969 78.816406 67.117188 78.511719 67.421875 C 78.207031 67.726562 78.003906 68.128906 78.003906 68.636719 L 78.003906 172.089844 C 78.003906 173 78.816406 173.710938 79.726562 173.710938 L 154.660156 173.710938 C 155.570312 173.710938 156.28125 173 156.28125 172.089844 L 156.28125 161.675781 L 147.480469 161.675781 L 147.480469 168.046875 C 147.480469 168.855469 146.976562 169.5625 146.269531 169.867188 C 145.558594 170.269531 144.75 170.171875 144.144531 169.664062 L 127.964844 156.011719 C 127.457031 155.605469 127.253906 155.101562 127.253906 154.496094 C 127.253906 153.886719 127.457031 153.28125 127.964844 152.875 L 144.144531 139.324219 C 144.75 138.820312 145.558594 138.71875 146.269531 139.023438 C 146.976562 139.324219 147.480469 140.035156 147.480469 140.84375 L 147.480469 147.316406 L 156.28125 147.316406 L 156.28125 140.234375 L 152.839844 140.234375 C 151.730469 140.234375 150.820312 139.324219 150.820312 138.214844 L 150.820312 128 C 150.820312 126.886719 151.730469 125.976562 152.839844 125.976562 L 156.28125 125.976562 L 156.28125 87.34375 L 142.726562 87.34375 C 140.097656 87.34375 137.875 85.121094 137.875 82.492188 L 137.875 66.917969 Z M 79.726562 66.917969 " fill-opacity="1" fill-rule="evenodd"/><path fill="#2496ca" d="M 158.300781 87.34375 L 142.726562 87.34375 C 140.097656 87.34375 137.875 85.121094 137.875 82.492188 L 137.875 64.894531 C 137.875 64.085938 138.378906 63.378906 139.1875 63.074219 C 139.996094 62.769531 140.808594 62.972656 141.414062 63.578125 L 159.820312 83.90625 C 160.324219 84.511719 160.425781 85.421875 160.121094 86.132812 C 159.820312 86.839844 159.113281 87.34375 158.300781 87.34375 Z M 141.917969 70.152344 L 141.917969 82.492188 C 141.917969 82.894531 142.324219 83.300781 142.726562 83.300781 L 153.75 83.300781 Z M 141.917969 70.152344 " fill-opacity="1" fill-rule="evenodd"/><path fill="#2496ca" d="M 145.558594 186.453125 L 70.621094 186.453125 C 67.488281 186.453125 64.960938 183.921875 64.960938 180.789062 L 64.960938 77.332031 C 64.960938 74.199219 67.488281 71.570312 70.621094 71.570312 L 75.984375 71.570312 C 77.09375 71.570312 78.003906 72.480469 78.003906 73.589844 L 78.003906 172.089844 C 78.003906 173 78.816406 173.710938 79.726562 173.710938 L 149.199219 173.710938 C 150.3125 173.710938 151.222656 174.621094 151.222656 175.730469 L 151.222656 180.789062 C 151.222656 183.921875 148.695312 186.453125 145.558594 186.453125 Z M 70.621094 75.613281 C 69.710938 75.613281 69.003906 76.421875 69.003906 77.332031 L 69.003906 180.789062 C 69.003906 181.699219 69.710938 182.40625 70.621094 182.40625 L 145.558594 182.40625 C 146.46875 182.40625 147.179688 181.699219 147.179688 180.789062 L 147.179688 177.753906 L 79.726562 177.753906 C 76.589844 177.753906 73.960938 175.226562 73.960938 172.089844 L 73.960938 75.613281 Z M 70.621094 75.613281 " fill-opacity="1" fill-rule="evenodd"/><path fill="#2496ca" d="M 230.507812 226.800781 L 155.570312 226.800781 C 152.4375 226.800781 149.910156 224.273438 149.910156 221.140625 L 149.910156 175.730469 C 149.910156 174.621094 150.820312 173.710938 151.929688 173.710938 L 154.5625 173.710938 C 155.472656 173.710938 156.28125 173 156.28125 172.089844 L 156.28125 159.652344 C 156.28125 158.539062 157.191406 157.628906 158.300781 157.628906 L 179.035156 157.628906 L 179.035156 151.359375 L 158.300781 151.359375 C 157.191406 151.359375 156.28125 150.449219 156.28125 149.335938 L 156.28125 138.3125 C 156.28125 137.203125 157.191406 136.292969 158.300781 136.292969 L 188.539062 136.292969 C 189.652344 136.292969 190.5625 137.203125 190.5625 138.3125 L 190.5625 142.460938 L 201.585938 133.15625 L 190.5625 123.851562 L 190.5625 128 C 190.5625 129.113281 189.652344 130.023438 188.539062 130.023438 L 158.300781 130.023438 C 157.191406 130.023438 156.28125 129.113281 156.28125 128 L 156.28125 113.941406 C 156.28125 112.828125 157.191406 111.917969 158.300781 111.917969 L 215.84375 111.917969 C 216.957031 111.917969 217.867188 112.828125 217.867188 113.941406 L 217.867188 131.539062 C 217.867188 131.941406 218.171875 132.347656 218.675781 132.347656 L 234.148438 132.347656 C 235.261719 132.347656 236.171875 133.257812 236.171875 134.371094 L 236.171875 221.140625 C 236.273438 224.273438 233.644531 226.800781 230.507812 226.800781 Z M 153.953125 177.753906 L 153.953125 221.140625 C 153.953125 222.050781 154.660156 222.757812 155.570312 222.757812 L 230.507812 222.757812 C 231.417969 222.757812 232.226562 222.050781 232.226562 221.140625 L 232.226562 136.292969 L 218.675781 136.292969 C 216.046875 136.292969 213.824219 134.167969 213.824219 131.4375 L 213.824219 115.964844 L 160.324219 115.964844 L 160.324219 125.976562 L 186.515625 125.976562 L 186.515625 119.503906 C 186.515625 118.796875 187.023438 117.988281 187.730469 117.683594 C 188.4375 117.378906 189.246094 117.480469 189.855469 117.988281 L 206.035156 131.640625 C 206.542969 131.941406 206.742188 132.550781 206.742188 133.15625 C 206.742188 133.761719 206.542969 134.371094 206.035156 134.671875 L 189.855469 148.324219 C 189.246094 148.832031 188.4375 148.933594 187.730469 148.628906 C 187.023438 148.226562 186.515625 147.515625 186.515625 146.808594 L 186.515625 140.335938 L 160.324219 140.335938 L 160.324219 147.316406 L 181.15625 147.316406 C 182.269531 147.316406 183.179688 148.226562 183.179688 149.335938 L 183.179688 159.652344 C 183.179688 160.765625 182.269531 161.675781 181.15625 161.675781 L 160.324219 161.675781 L 160.324219 172.089844 C 160.324219 175.226562 157.796875 177.855469 154.660156 177.855469 L 153.953125 177.855469 Z M 153.953125 177.753906 " fill-opacity="1" fill-rule="evenodd"/><path fill="#2496ca" d="M 234.25 136.292969 L 218.675781 136.292969 C 216.046875 136.292969 213.824219 134.167969 213.824219 131.4375 L 213.824219 113.941406 C 213.824219 113.132812 214.328125 112.324219 215.136719 112.019531 C 215.84375 111.71875 216.753906 111.917969 217.363281 112.628906 L 235.667969 132.953125 C 236.273438 133.5625 236.375 134.371094 236.070312 135.179688 C 235.765625 135.886719 235.058594 136.292969 234.25 136.292969 Z M 217.867188 119.199219 L 217.867188 131.4375 C 217.867188 131.941406 218.273438 132.246094 218.675781 132.246094 L 229.699219 132.246094 Z M 217.867188 119.199219 " fill-opacity="1" fill-rule="evenodd"/><path fill="#2496ca" d="M 221.507812 235.5 L 146.570312 235.5 C 143.4375 235.5 140.808594 232.972656 140.808594 229.835938 L 140.808594 184.429688 C 140.808594 183.316406 141.71875 182.40625 142.828125 182.40625 L 145.558594 182.40625 C 146.46875 182.40625 147.179688 181.699219 147.179688 180.789062 L 147.179688 175.730469 C 147.179688 174.621094 148.089844 173.710938 149.199219 173.710938 L 151.929688 173.710938 C 153.042969 173.710938 153.953125 174.621094 153.953125 175.730469 L 153.953125 221.140625 C 153.953125 222.050781 154.660156 222.757812 155.570312 222.757812 L 225.148438 222.757812 C 226.261719 222.757812 227.171875 223.667969 227.171875 224.78125 L 227.171875 229.835938 C 227.171875 232.972656 224.644531 235.5 221.507812 235.5 Z M 144.851562 186.453125 L 144.851562 229.835938 C 144.851562 230.746094 145.660156 231.453125 146.570312 231.453125 L 221.507812 231.453125 C 222.417969 231.453125 223.125 230.746094 223.125 229.835938 L 223.125 226.800781 L 155.570312 226.800781 C 152.4375 226.800781 149.910156 224.273438 149.910156 221.140625 L 149.910156 184.429688 C 148.898438 185.644531 147.277344 186.453125 145.558594 186.453125 Z M 144.851562 186.453125 " fill-opacity="1" fill-rule="evenodd"/><path fill="#2496ca" d="M 128.46875 76.121094 L 87.511719 76.121094 C 86.398438 76.121094 85.488281 75.210938 85.488281 74.097656 C 85.488281 72.984375 86.398438 72.074219 87.511719 72.074219 L 128.46875 72.074219 C 129.582031 72.074219 130.492188 72.984375 130.492188 74.097656 C 130.492188 75.210938 129.582031 76.121094 128.46875 76.121094 Z M 128.46875 76.121094 " fill-opacity="1" fill-rule="evenodd"/><path fill="#2496ca" d="M 128.46875 85.726562 L 87.511719 85.726562 C 86.398438 85.726562 85.488281 84.816406 85.488281 83.703125 C 85.488281 82.589844 86.398438 81.679688 87.511719 81.679688 L 128.46875 81.679688 C 129.582031 81.679688 130.492188 82.589844 130.492188 83.703125 C 130.492188 84.816406 129.582031 85.726562 128.46875 85.726562 Z M 128.46875 85.726562 " fill-opacity="1" fill-rule="evenodd"/><path fill="#2496ca" d="M 124.625 105.445312 L 88.925781 105.445312 C 87.816406 105.445312 86.90625 104.535156 86.90625 103.425781 C 86.90625 102.3125 87.816406 101.402344 88.925781 101.402344 L 124.625 101.402344 C 125.738281 101.402344 126.648438 102.3125 126.648438 103.425781 C 126.648438 104.535156 125.738281 105.445312 124.625 105.445312 Z M 124.625 105.445312 " fill-opacity="1" fill-rule="evenodd"/><path fill="#2496ca" d="M 124.625 120.917969 L 88.925781 120.917969 C 87.816406 120.917969 86.90625 120.007812 86.90625 118.898438 C 86.90625 117.785156 87.816406 116.875 88.925781 116.875 L 124.625 116.875 C 125.738281 116.875 126.648438 117.785156 126.648438 118.898438 C 126.648438 120.007812 125.738281 120.917969 124.625 120.917969 Z M 124.625 120.917969 " fill-opacity="1" fill-rule="evenodd"/><path fill="#2496ca" d="M 124.625 136.394531 L 88.925781 136.394531 C 87.816406 136.394531 86.90625 135.484375 86.90625 134.371094 C 86.90625 133.257812 87.816406 132.347656 88.925781 132.347656 L 124.625 132.347656 C 125.738281 132.347656 126.648438 133.257812 126.648438 134.371094 C 126.648438 135.484375 125.738281 136.394531 124.625 136.394531 Z M 124.625 136.394531 " fill-opacity="1" fill-rule="evenodd"/><path fill="#2496ca" d="M 124.625 151.867188 L 88.925781 151.867188 C 87.816406 151.867188 86.90625 150.957031 86.90625 149.84375 C 86.90625 148.730469 87.816406 147.820312 88.925781 147.820312 L 124.625 147.820312 C 125.738281 147.820312 126.648438 148.730469 126.648438 149.84375 C 126.648438 150.957031 125.738281 151.867188 124.625 151.867188 Z M 124.625 151.867188 " fill-opacity="1" fill-rule="evenodd"/><path fill="#2496ca" d="M 124.625 167.339844 L 88.925781 167.339844 C 87.816406 167.339844 86.90625 166.429688 86.90625 165.316406 C 86.90625 164.203125 87.816406 163.292969 88.925781 163.292969 L 124.625 163.292969 C 125.738281 163.292969 126.648438 164.203125 126.648438 165.316406 C 126.648438 166.429688 125.738281 167.339844 124.625 167.339844 Z M 124.625 167.339844 " fill-opacity="1" fill-rule="evenodd"/><path fill="#2496ca" d="M 188.539062 148.730469 C 188.238281 148.730469 187.933594 148.730469 187.730469 148.527344 C 187.023438 148.226562 186.515625 147.515625 186.515625 146.707031 L 186.515625 140.335938 L 152.839844 140.335938 C 151.730469 140.335938 150.820312 139.425781 150.820312 138.3125 L 150.820312 128 C 150.820312 126.886719 151.730469 125.976562 152.839844 125.976562 L 186.515625 125.976562 L 186.515625 119.503906 C 186.515625 118.796875 187.023438 117.988281 187.730469 117.683594 C 188.4375 117.378906 189.246094 117.480469 189.855469 117.988281 L 206.035156 131.640625 C 206.542969 131.941406 206.742188 132.550781 206.742188 133.15625 C 206.742188 133.761719 206.542969 134.371094 206.035156 134.671875 L 189.855469 148.324219 C 189.449219 148.628906 189.046875 148.730469 188.539062 148.730469 Z M 154.863281 136.292969 L 188.539062 136.292969 C 189.652344 136.292969 190.5625 137.203125 190.5625 138.3125 L 190.5625 142.460938 L 201.585938 133.15625 L 190.5625 123.851562 L 190.5625 128 C 190.5625 129.113281 189.652344 130.023438 188.539062 130.023438 L 154.863281 130.023438 Z M 154.863281 136.292969 " fill-opacity="1" fill-rule="evenodd"/><path fill="#2496ca" d="M 145.457031 170.070312 C 144.953125 170.070312 144.546875 169.96875 144.144531 169.664062 L 127.964844 156.011719 C 127.457031 155.605469 127.253906 155.101562 127.253906 154.496094 C 127.253906 153.886719 127.457031 153.28125 127.964844 152.875 L 144.144531 139.324219 C 144.75 138.820312 145.558594 138.71875 146.269531 139.023438 C 146.976562 139.324219 147.480469 140.035156 147.480469 140.84375 L 147.480469 147.316406 L 181.15625 147.316406 C 182.269531 147.316406 183.179688 148.226562 183.179688 149.335938 L 183.179688 159.550781 C 183.179688 160.664062 182.269531 161.574219 181.15625 161.574219 L 147.480469 161.574219 L 147.480469 168.046875 C 147.480469 168.855469 146.976562 169.5625 146.269531 169.867188 C 146.066406 170.070312 145.761719 170.070312 145.457031 170.070312 Z M 132.414062 154.496094 L 143.4375 163.699219 L 143.4375 159.550781 C 143.4375 158.4375 144.347656 157.527344 145.457031 157.527344 L 179.136719 157.527344 L 179.136719 151.359375 L 145.457031 151.359375 C 144.347656 151.359375 143.4375 150.449219 143.4375 149.335938 L 143.4375 145.191406 Z M 132.414062 154.496094 " fill-opacity="1" fill-rule="evenodd"/><path fill="#2496ca" d="M 225.453125 171.585938 L 175.191406 171.585938 C 174.078125 171.585938 173.167969 170.675781 173.167969 169.5625 C 173.167969 168.449219 174.078125 167.539062 175.191406 167.539062 L 225.453125 167.539062 C 226.566406 167.539062 227.476562 168.449219 227.476562 169.5625 C 227.476562 170.675781 226.566406 171.585938 225.453125 171.585938 Z M 225.453125 171.585938 " fill-opacity="1" fill-rule="evenodd"/><path fill="#2496ca" d="M 225.453125 182.914062 L 175.191406 182.914062 C 174.078125 182.914062 173.167969 182.003906 173.167969 180.890625 C 173.167969 179.777344 174.078125 178.867188 175.191406 178.867188 L 225.453125 178.867188 C 226.566406 178.867188 227.476562 179.777344 227.476562 180.890625 C 227.476562 182.003906 226.566406 182.914062 225.453125 182.914062 Z M 225.453125 182.914062 " fill-opacity="1" fill-rule="evenodd"/><path fill="#2496ca" d="M 225.453125 194.238281 L 175.191406 194.238281 C 174.078125 194.238281 173.167969 193.328125 173.167969 192.214844 C 173.167969 191.105469 174.078125 190.195312 175.191406 190.195312 L 225.453125 190.195312 C 226.566406 190.195312 227.476562 191.105469 227.476562 192.214844 C 227.476562 193.328125 226.566406 194.238281 225.453125 194.238281 Z M 225.453125 194.238281 " fill-opacity="1" fill-rule="evenodd"/><path fill="#2496ca" d="M 225.453125 205.566406 L 175.191406 205.566406 C 174.078125 205.566406 173.167969 204.65625 173.167969 203.542969 C 173.167969 202.429688 174.078125 201.519531 175.191406 201.519531 L 225.453125 201.519531 C 226.566406 201.519531 227.476562 202.429688 227.476562 203.542969 C 227.476562 204.65625 226.566406 205.566406 225.453125 205.566406 Z M 225.453125 205.566406 " fill-opacity="1" fill-rule="evenodd"/><path fill="#2496ca" d="M 225.453125 216.890625 L 175.191406 216.890625 C 174.078125 216.890625 173.167969 215.980469 173.167969 214.871094 C 173.167969 213.757812 174.078125 212.847656 175.191406 212.847656 L 225.453125 212.847656 C 226.566406 212.847656 227.476562 213.757812 227.476562 214.871094 C 227.476562 215.980469 226.566406 216.890625 225.453125 216.890625 Z M 225.453125 216.890625 " fill-opacity="1" fill-rule="evenodd"/></svg>