<svg xmlns="http://www.w3.org/2000/svg" xmlns:xlink="http://www.w3.org/1999/xlink" width="400" zoomAndPan="magnify" viewBox="0 0 300 299.999988" height="400" preserveAspectRatio="xMidYMid meet" version="1.0"><defs><clipPath id="f0d0d8ed91"><path d="M 14.535156 7.296875 L 287.535156 7.296875 L 287.535156 290.796875 L 14.535156 290.796875 Z M 14.535156 7.296875 " clip-rule="nonzero"/></clipPath><clipPath id="a45da97da1"><path d="M 2 0.296875 L 151 0.296875 L 151 283 L 2 283 Z M 2 0.296875 " clip-rule="nonzero"/></clipPath><clipPath id="62ded1c067"><rect x="0" width="274" y="0" height="284"/></clipPath></defs><g clip-path="url(#f0d0d8ed91)"><g transform="matrix(1, 0, 0, 1, 14, 7)"><g clip-path="url(#62ded1c067)"><g clip-path="url(#a45da97da1)"><path fill="#6480a6" d="M 95.832031 0.292969 C 97.859375 0.292969 100 1.085938 101.566406 2.652344 C 117.117188 18.222656 132.636719 33.816406 148.222656 49.347656 C 151.324219 52.449219 151.320312 57.683594 148.222656 60.785156 C 132.632812 76.3125 117.113281 91.910156 101.566406 107.480469 C 101.554688 107.480469 101.546875 107.480469 101.527344 107.480469 C 98.433594 110.574219 93.234375 110.578125 90.136719 107.480469 L 81.828125 99.128906 C 78.730469 96.03125 78.730469 90.828125 81.828125 87.730469 L 96.414062 73.132812 L 41.953125 73.132812 L 41.953125 208.023438 L 94.417969 208.023438 L 81.828125 195.386719 C 78.71875 192.277344 78.722656 187.0625 81.828125 183.949219 L 90.136719 175.636719 C 91.695312 174.074219 93.804688 173.277344 95.832031 173.277344 C 97.867188 173.277344 100.003906 174.074219 101.566406 175.636719 C 117.117188 191.214844 132.664062 206.796875 148.222656 222.367188 C 151.292969 225.46875 151.3125 230.679688 148.222656 233.769531 C 132.632812 249.296875 117.109375 264.890625 101.566406 280.464844 C 101.550781 280.464844 101.546875 280.464844 101.527344 280.464844 C 98.429688 283.558594 93.230469 283.558594 90.136719 280.464844 L 81.828125 272.148438 C 78.730469 269.046875 78.730469 263.8125 81.828125 260.710938 L 94.488281 248.039062 L 12.164062 248.039062 C 6.617188 248.039062 2.007812 243.386719 2.007812 237.835938 L 2.007812 43.320312 C 2.007812 37.769531 6.617188 33.152344 12.164062 33.152344 L 92.566406 33.152344 L 81.828125 22.40625 C 78.71875 19.296875 78.71875 14.078125 81.828125 10.96875 L 90.136719 2.652344 C 90.8125 1.976562 91.773438 2.023438 92.601562 1.636719 C 93.476562 0.808594 94.625 0.328125 95.832031 0.292969 Z M 95.832031 0.292969 " fill-opacity="1" fill-rule="nonzero"/></g><path fill="#6480a6" d="M 256.996094 160.386719 C 265.523438 160.386719 272.527344 167.429688 272.527344 175.960938 L 272.527344 259.984375 C 272.527344 268.515625 265.523438 275.523438 256.996094 275.523438 L 173.039062 275.523438 C 164.515625 275.523438 157.511719 268.515625 157.511719 259.984375 L 157.511719 175.960938 C 157.511719 167.429688 164.515625 160.386719 173.039062 160.386719 Z M 256.996094 160.386719 " fill-opacity="1" fill-rule="nonzero"/><path fill="#e2f0fa" d="M 207.621094 181.882812 C 218.925781 181.882812 228.191406 191.15625 228.191406 202.472656 C 228.191406 213.785156 218.925781 223.058594 207.621094 223.058594 C 196.3125 223.058594 187.046875 213.785156 187.046875 202.472656 C 187.046875 191.15625 196.3125 181.882812 207.621094 181.882812 Z M 207.621094 181.882812 " fill-opacity="1" fill-rule="nonzero"/><path fill="#e2f0fa" d="M 256.996094 7.554688 C 265.523438 7.554688 272.527344 14.5625 272.527344 23.097656 L 272.527344 107.117188 C 272.527344 115.648438 265.523438 122.660156 256.996094 122.660156 L 173.039062 122.660156 C 164.515625 122.660156 157.511719 115.648438 157.511719 107.117188 L 157.511719 23.097656 C 157.511719 14.5625 164.515625 7.554688 173.039062 7.554688 Z M 256.996094 7.554688 " fill-opacity="1" fill-rule="nonzero"/><path fill="#fda35d" d="M 207.621094 29.054688 C 218.925781 29.054688 228.191406 38.328125 228.191406 49.640625 C 228.191406 60.957031 218.925781 70.230469 207.621094 70.230469 C 196.3125 70.230469 187.046875 60.957031 187.046875 49.640625 C 187.046875 38.328125 196.3125 29.054688 207.621094 29.054688 Z M 207.621094 29.054688 " fill-opacity="1" fill-rule="nonzero"/><path fill="#9ccc65" d="M 240.894531 75.019531 C 242.1875 74.96875 243.324219 75.371094 244.300781 76.21875 L 272.523438 100.765625 L 272.523438 107.117188 C 272.523438 115.648438 265.519531 122.660156 256.992188 122.660156 L 173.046875 122.660156 C 164.519531 122.660156 157.511719 115.648438 157.511719 107.117188 L 157.511719 105.308594 L 185.746094 86.421875 C 186.132812 86.160156 186.546875 85.960938 186.992188 85.816406 C 187.433594 85.675781 187.890625 85.597656 188.355469 85.585938 C 188.820312 85.574219 189.277344 85.625 189.730469 85.742188 C 190.179688 85.859375 190.605469 86.039062 191.007812 86.277344 L 214.113281 99.929688 L 237.582031 76.46875 C 238.496094 75.546875 239.601562 75.0625 240.894531 75.015625 Z M 240.894531 75.019531 " fill-opacity="1" fill-rule="nonzero"/><path fill="#2e3d50" d="M 240.902344 227.867188 C 242.199219 227.824219 243.332031 228.234375 244.300781 229.085938 L 272.523438 253.605469 L 272.523438 259.984375 C 272.523438 268.515625 265.519531 275.527344 256.992188 275.527344 L 173.046875 275.527344 C 164.519531 275.527344 157.511719 268.515625 157.511719 259.984375 L 157.511719 258.15625 L 185.746094 239.25 C 186.132812 238.992188 186.546875 238.789062 186.992188 238.648438 C 187.433594 238.503906 187.890625 238.425781 188.355469 238.414062 C 188.820312 238.402344 189.277344 238.453125 189.730469 238.570312 C 190.179688 238.691406 190.605469 238.867188 191.007812 239.105469 L 214.113281 252.796875 L 237.582031 229.296875 C 238.5 228.382812 239.609375 227.90625 240.90625 227.867188 Z M 240.902344 227.867188 " fill-opacity="1" fill-rule="nonzero"/></g></g></g></svg>