<svg xmlns="http://www.w3.org/2000/svg" xmlns:xlink="http://www.w3.org/1999/xlink" width="400" zoomAndPan="magnify" viewBox="0 0 300 299.999988" height="400" preserveAspectRatio="xMidYMid meet" version="1.0"><defs><clipPath id="f288da9942"><path d="M 57 4.644531 L 272.609375 4.644531 L 272.609375 295.644531 L 57 295.644531 Z M 57 4.644531 " clip-rule="nonzero"/></clipPath><clipPath id="fbdf44adaa"><path d="M 27.359375 117 L 243 117 L 243 228 L 27.359375 228 Z M 27.359375 117 " clip-rule="nonzero"/></clipPath><clipPath id="0c92c05eab"><path d="M 201 6 L 272.609375 6 L 272.609375 129 L 201 129 Z M 201 6 " clip-rule="nonzero"/></clipPath><clipPath id="4286e517d8"><path d="M 200 4.644531 L 272.609375 4.644531 L 272.609375 78 L 200 78 Z M 200 4.644531 " clip-rule="nonzero"/></clipPath></defs><g clip-path="url(#f288da9942)"><path fill="#f2f2f2" d="M 272.605469 77.074219 L 272.605469 281.125 C 272.605469 289.171875 266.078125 295.644531 258.039062 295.644531 L 72.390625 295.644531 C 64.351562 295.644531 57.828125 289.113281 57.828125 281.125 L 57.828125 19.167969 C 57.828125 11.121094 64.351562 4.644531 72.390625 4.644531 L 200.3125 4.644531 L 211.03125 15.375 Z M 272.605469 77.074219 " fill-opacity="1" fill-rule="nonzero"/></g><path fill="#cccccc" d="M 242.835938 140.464844 L 242.835938 227.707031 C 242.835938 234.121094 237.652344 239.3125 231.1875 239.3125 L 57.828125 239.3125 L 57.828125 128.800781 L 231.1875 128.800781 C 237.652344 128.800781 242.835938 134.050781 242.835938 140.464844 Z M 242.835938 140.464844 " fill-opacity="1" fill-rule="nonzero"/><g clip-path="url(#fbdf44adaa)"><path fill="#29abe2" d="M 231.246094 227.707031 L 39.011719 227.707031 C 32.605469 227.707031 27.363281 222.457031 27.363281 216.042969 L 27.363281 128.859375 C 27.363281 122.445312 32.605469 117.199219 39.011719 117.199219 L 231.246094 117.199219 C 237.652344 117.199219 242.894531 122.445312 242.894531 128.859375 L 242.894531 216.042969 C 242.894531 222.457031 237.652344 227.707031 231.246094 227.707031 Z M 231.246094 227.707031 " fill-opacity="1" fill-rule="nonzero"/></g><g clip-path="url(#0c92c05eab)"><path fill="#e6e6e6" d="M 272.605469 128.453125 L 201.476562 57.421875 L 201.476562 6.105469 L 272.605469 77.074219 Z M 272.605469 128.453125 " fill-opacity="1" fill-rule="nonzero"/></g><g clip-path="url(#4286e517d8)"><path fill="#b3b3b3" d="M 272.605469 77.074219 L 214.875 77.074219 C 206.835938 77.074219 200.3125 70.542969 200.3125 62.554688 L 200.3125 4.644531 L 211.03125 15.375 Z M 272.605469 77.074219 " fill-opacity="1" fill-rule="nonzero"/></g><path fill="#ffffff" d="M 97.613281 173.296875 C 97.613281 175.921875 97.613281 177.671875 97.382812 181.871094 C 96.796875 191.726562 90.390625 198.78125 75.769531 198.78125 C 60.507812 198.78125 54.214844 190.792969 53.808594 178.605469 L 53.75 176.15625 L 68.429688 176.15625 L 68.605469 178.605469 C 69.070312 185.953125 72.042969 188.050781 76.175781 188.050781 C 80.253906 188.050781 82.351562 185.429688 82.757812 180.996094 C 82.933594 179.128906 82.933594 177.320312 82.933594 175.628906 L 82.933594 141.515625 L 97.613281 141.515625 Z M 97.613281 173.296875 " fill-opacity="1" fill-rule="nonzero"/><path fill="#ffffff" d="M 153.945312 159.710938 C 153.945312 170.789062 146.546875 176.5625 138.390625 177.554688 C 135.363281 177.90625 133.089844 177.964844 129.59375 177.964844 L 123.070312 177.964844 L 123.070312 197.675781 L 108.390625 197.675781 L 108.390625 141.515625 L 129.59375 141.515625 C 133.089844 141.515625 135.363281 141.574219 138.390625 141.921875 C 146.546875 142.855469 153.945312 148.628906 153.945312 159.710938 Z M 138.625 159.710938 C 138.625 155.453125 136.410156 153.296875 132.683594 152.945312 C 131.632812 152.886719 130.292969 152.886719 128.777344 152.886719 L 123.070312 152.886719 L 123.070312 166.589844 L 128.777344 166.589844 C 130.351562 166.589844 131.632812 166.589844 132.683594 166.535156 C 136.410156 166.125 138.625 163.910156 138.625 159.710938 Z M 138.625 159.710938 " fill-opacity="1" fill-rule="nonzero"/><path fill="#ffffff" d="M 212.488281 167.699219 L 212.488281 197.675781 L 201.070312 197.675781 L 199.671875 189.042969 L 197.226562 195.226562 C 194.023438 197.90625 190.234375 198.78125 184.234375 198.78125 C 169.207031 198.78125 158.71875 188.867188 158.71875 169.972656 C 158.71875 150.4375 171.945312 140.347656 187.324219 140.347656 C 203.398438 140.347656 211.613281 148.921875 212.777344 159.945312 L 212.835938 160.761719 L 198.15625 160.761719 L 197.984375 159.945312 C 196.757812 153.9375 193.089844 151.078125 187.148438 151.078125 C 179.984375 151.078125 174.042969 156.96875 174.042969 169.097656 C 174.042969 183.269531 180.15625 188.050781 187.089844 188.050781 C 192.796875 188.050781 196.527344 185.3125 198.566406 179.070312 L 187.613281 179.070312 L 187.613281 167.699219 Z M 212.488281 167.699219 " fill-opacity="1" fill-rule="nonzero"/></svg>